<?xml version="1.0" encoding="utf-8"?>
<!-- Generator: Adobe Illustrator 27.5.0, SVG Export Plug-In . SVG Version: 6.00 Build 0)  -->
<svg version="1.1" xmlns="http://www.w3.org/2000/svg" xmlns:xlink="http://www.w3.org/1999/xlink" x="0px" y="0px"
	 viewBox="0 0 500 500" style="enable-background:new 0 0 500 500;" xml:space="preserve">
<g id="BACKGROUND">
	<rect style="fill:#FFFFFF;" width="500" height="500"/>
</g>
<g id="OBJECTS">
	<g>
		<path style="fill:#F8EBF3;" d="M200.85,157.746c0.009,0.023,0.021,0.042,0.03,0.066
			C200.847,157.728,200.843,157.723,200.85,157.746z"/>
		<path style="fill:#F8EBF3;" d="M200.976,158.136c-0.016-0.07-0.11-0.335-0.126-0.39c-0.152-0.377-0.312-0.713-0.614-1.001
			c-0.522-0.498-1.172-0.753-1.833-1.006c-0.375-0.144-0.653-0.29-1.186-0.532c-0.461-0.209-0.913-0.432-1.35-0.688
			c-0.217-0.127-0.43-0.26-0.639-0.401c-0.104-0.07-0.207-0.142-0.309-0.215c-0.033-0.024-0.052-0.037-0.07-0.049
			c-0.016-0.013-0.028-0.024-0.053-0.044c-0.388-0.319-0.753-0.666-1.092-1.038c-0.103-0.113-0.379-0.445-0.375-0.439
			c-0.02-0.028-0.275-0.421-0.374-0.587c-0.494-0.829-0.745-1.489-0.93-2.573c-0.004-0.022-0.004-0.024-0.007-0.04
			c-0.016-0.153-0.027-0.308-0.033-0.461c-0.012-0.284-0.009-0.569,0.01-0.852c0.007-0.097,0.014-0.195,0.025-0.292
			c0.009-0.032,0.032-0.157,0.044-0.202c0.071-0.276,0.136-0.549,0.229-0.819c0.023-0.066,0.032-0.096,0.037-0.113
			c0.052-0.116,0.11-0.232,0.17-0.344c0.051-0.094,0.107-0.184,0.161-0.276c0.012-0.021,0.106-0.165,0.142-0.224
			c0.037-0.048,0.083-0.109,0.085-0.111c0.095-0.106,0.189-0.213,0.29-0.314c0.075-0.076,0.154-0.148,0.231-0.222
			c0.02-0.019,0.191-0.166,0.221-0.195c0.573-0.445,1.381-0.794,2.055-0.908c-0.097,0.016,0.413-0.032,0.554-0.033
			c0.141-0.001,0.648,0.038,0.552,0.023c0.165,0.027,0.963,0.215,1.349,0.331c0.904,0.273,1.913-0.251,2.257-1.108
			c0.385-0.956-0.003-1.792-0.783-2.389c-1.647-1.261-4.095-1.271-6.003-0.633c-2.004,0.67-3.81,2.013-4.874,3.862
			c-2.399,4.168-1.013,9.592,2.301,12.83c1.669,1.631,3.764,2.855,6.03,3.417c0.737,0.183,1.509,0.289,2.257,0.092
			c0.397-0.104,0.745-0.303,1.042-0.587c0.094-0.09,0.165-0.197,0.243-0.301c-0.01,0.026,0.147-0.13,0.209-0.228
			C201.006,158.778,201.056,158.477,200.976,158.136z"/>
	</g>
	<path style="fill:#F8EBF3;" d="M304.221,142.791c-0.706-2.975-1.513-6.134-4.22-7.88c-0.318-0.205-0.772-0.124-1.034,0.133
		c-2.02,1.985-2.326,4.598-2.632,7.289c-0.293,2.584-0.272,5.372-0.208,8.08c0.125,5.275-0.066,10.667-0.942,15.694
		c-1.756,10.085-5.672,19.712-13.271,26.826c-7.508,7.029-17.894,10.69-28.093,11.061c-10.367,0.376-20.808-3.57-28.815-10.077
		c-4.898-3.981-8.965-8.771-12.142-14.221c-1.731-2.97-3.231-6.078-4.52-9.264c-1.325-3.278-2.205-6.777-3.859-9.9
		c-0.865-1.633-3.798-0.958-3.613,0.979c0.317,3.332,1.508,6.504,2.65,9.639c1.153,3.163,2.46,6.282,3.976,9.289
		c2.757,5.467,6.326,10.549,10.692,14.854c8.473,8.355,19.482,13.821,31.275,15.362c11.758,1.536,23.839-1.485,33.461-8.469
		c9.711-7.048,15.999-17.419,18.998-28.949c1.685-6.481,2.452-13.267,2.72-19.95C304.781,149.902,305.008,146.108,304.221,142.791z"
		/>
	<path style="fill:#F8EBF3;" d="M301.473,121.265c-1.635-2.161-3.703-2.402-6.194-3.001c-2.224-0.535-4.42-1.207-6.43-2.316
		c-3.318-1.831-5.806-4.662-6.324-8.491c-0.31-2.293-3.119-2.681-4.772-1.942c-5.418,2.421-11.227,5.045-17.298,4.72
		c-4.403-0.235-8.747-2.318-10.739-6.382c-0.942-1.921-3.677-2.01-5.081-0.655c-6.652,6.418-17.364,16.221-26.965,9.222
		c-1.667-1.215-3.87,0.128-4.429,1.802c-2.906,8.702-8.726,15.43-14.809,22.095c-1.363,1.494,0.334,3.56,2.099,2.72
		c8.037-3.826,13.633-11.52,17.125-19.636c4.637,2.048,10.214,1.881,14.939,0.202c5.319-1.889,9.69-5.375,13.78-9.153
		c3.276,3.694,8.211,5.689,13.139,6.194c6.142,0.63,12.124-1.452,17.755-3.862c1.485,3.441,4.283,6.31,7.441,8.282
		c2.272,1.419,4.871,2.406,7.445,3.119c2.67,0.74,5.997,1.853,8.501,0.192C301.588,123.76,302.249,122.291,301.473,121.265z"/>
	<path style="fill:#F8EBF3;" d="M336.685,84.258c-2.706-9.368-10.971-17.398-20.484-18.176c-0.101-6.779-2.756-13.555-7.189-18.492
		c-5.43-6.046-13.738-8.878-21.586-7.869c-4.055,0.521-7.453,2.075-11.03,4.039c-0.963,0.529-2.858,1.794-3.942,1.028
		c-0.469-0.332-0.747-1.076-1.033-1.558c-0.567-0.956-1.155-1.867-1.848-2.736c-4.648-5.825-12.544-7.612-19.473-6.397
		c-8.175,1.434-14.84,7.438-20.033,13.896c-9.95-3.767-21.271-3.067-30.495,2.619c-8.399,5.177-14.584,14.153-16.576,24.077
		c-8.246,1.148-15.512,6.698-19.76,14.112c-5.386,9.4-5.693,21.219-3.27,31.622c0.75,3.221,2.187,6.685,4.537,9.036
		c-4.582,6.276-6.666,14.683-5.83,22.405c1.063,9.818,6.394,18.328,14.6,23.365c2.892,1.775,6.044,3.021,9.31,3.753
		c-0.932,4.428,0.744,9.456,3.866,12.744c2.554,2.69,6.16,4.023,9.697,4.523c4.122,0.583,7.88,0.038,11.876-1.03
		c2.896-0.774,2.262-5.344-0.7-5.369c-2.824-0.023-5.693,0.024-8.508-0.164c-2.381-0.159-5.079-0.774-6.94-2.35
		c-1.379-1.168-2.278-2.853-2.65-4.635c-0.326-1.558-0.082-2.883,1.083-4.026c2.265-2.223,0.42-5.913-2.422-6.069
		c-8.746-0.479-17.02-6.843-20.326-15.233c-3.527-8.953-1.072-19.176,4.992-26.244c2.162-2.52,0.543-5.91-2.496-6.253
		c-1.201-0.136-2.275-2.07-2.825-3.404c-0.909-2.206-1.306-4.74-1.639-7.098c-0.766-5.421-0.582-11.066,0.958-16.324
		c2.578-8.803,9.998-16.563,19.255-16.714c1.295-0.021,3.001-1.043,3.196-2.525c1.179-8.958,5.989-17.233,13.462-22.024
		c7.98-5.116,18.419-5.858,26.975-1.81c1.202,0.569,3.023,0.709,3.965-0.531c4.237-5.579,9.393-11.229,16.172-13.268
		c5.079-1.527,11.525-0.669,15.08,3.757c1.038,1.291,1.681,2.864,2.746,4.148c1.329,1.602,3.207,2.548,5.232,2.694
		c3.91,0.282,6.985-2.476,10.376-3.967c5.943-2.614,13.048-1.872,18.402,1.83c5.819,4.023,9.185,11.84,8.062,19.012
		c-0.321,2.049,0.851,4.555,3.22,4.386c8.049-0.573,15.267,5.744,17.288,13.656c2.349,9.198-2.109,18.751-8.359,25.108
		c-1.338,1.361-1.464,3.99,0,5.332c4.04,3.702,6.304,9.112,5.634,14.74c-0.618,5.199-3.711,9.733-7.979,12.405
		c-1.919,1.202-2.726,4.548-0.77,6.201c2.487,2.102,3.982,5.327,3.357,8.54c-0.619,3.183-2.954,5.505-5.748,6.327
		c-3.163,0.931-3.738,4.696-1.807,7.104c-0.2-0.249-0.009,0.038,0.087,0.195c0.04,0.118,0.19,0.496,0.21,0.573
		c0.034,0.131,0.052,0.183,0.065,0.208c0.001,0.01,0.001,0.012,0.002,0.023c0.028,0.309,0.028,0.63,0.002,0.939
		c-0.016,0.316-0.018,0.313-0.008-0.007c-0.035,0.14-0.071,0.281-0.106,0.422c-0.05,0.078-0.108,0.17-0.138,0.231
		c-0.092,0.181-0.368,0.592-0.109,0.183c-0.078,0.08-0.156,0.161-0.235,0.241c-0.023,0.015-0.037,0.024-0.068,0.044
		c-0.245,0.175-0.499,0.348-0.755,0.507c-0.049,0.03-0.306,0.153-0.454,0.228c-0.118,0.019-0.389,0.084-0.578,0.131
		c-0.068-0.004-0.245,0.004-0.375,0.01c-1.627,0.084-2.435,0.826-3.892,0.512c-1.338-0.287-2.524,0.849-2.193,2.275
		c0.658,2.835,2.522,5.438,5.38,6.07c2.997,0.663,6.61-0.284,8.783-2.535c2.924-3.029,3.781-7.49,2.727-11.438
		c3.32-2.38,5.861-5.932,6.694-10.099c0.893-4.47-0.032-9.255-2.513-12.978c4.273-4.085,7.023-9.723,7.653-15.786
		c0.658-6.337-1.446-12.949-5.314-17.917C335.96,106.327,339.73,94.802,336.685,84.258z"/>
	<path style="fill:#F8EBF3;" d="M281.647,218.598c-0.21-0.727-0.383-1.483-0.659-2.188c-0.585-1.496-1.187-2.979-1.839-4.447
		c-0.319-0.718-1.392-1.092-2.111-0.859c-0.722,0.234-1.468,0.974-1.372,1.803c0.184,1.602,0.42,3.192,0.677,4.784
		c0.116,0.718,0.341,1.427,0.522,2.131c0.13,0.506,0.259,1.031,0.441,1.532c-1.324,0.296-1.888,1.135-2.977,2.035
		c-0.816,0.674-1.75,1.215-2.692,1.694c-2.151,1.094-4.524,1.786-6.868,2.331c-4.808,1.119-9.868,1.326-14.758,0.645
		c-4.96-0.691-9.825-2.301-14.207-4.723c-0.717-0.397-1.749-0.847-2.2-1.572c-0.579-0.932-0.036-2.291,0.226-3.246
		c0.744-2.703,2.151-5.761,1.999-8.59c-0.108-2.028-2.531-2.565-3.66-0.991c-1.48,2.063-1.943,5.064-2.673,7.465
		c-0.707,2.329-1.431,4.791-0.413,7.145c0.882,2.039,2.798,3.26,4.666,4.307c2.03,1.137,4.159,2.092,6.343,2.892
		c8.723,3.194,18.531,3.614,27.501,1.2c2.418-0.651,4.834-1.499,7.046-2.684c1.975-1.058,5.579-3.174,5.368-5.753
		c0.134-0.014,0.269-0.039,0.404-0.083c1.022-0.331,1.624-1.173,1.7-2.232C282.175,220.313,281.889,219.434,281.647,218.598z"/>
	<path style="fill:#F8EBF3;" d="M225.408,219.897c-4.729-3.695-11.526-4.642-17.29-5.604c-5.567-0.929-11.227-1.499-16.875-1.442
		c-10.512,0.107-20.847,2.674-27.976,10.884c-6.794,7.823-9.544,18.688-11.791,28.553c-2.657,11.663-4.155,23.566-4.326,35.53
		c-0.097,6.799,0.218,13.61,0.917,20.374c0.314,3.042,0.923,6.066,1.153,9.114c0.097,1.285,0.083,2.538,0.113,3.787
		c-0.132-0.212-0.268-0.421-0.398-0.633c-2.829-4.633-5.704-9.236-8.509-13.885c-2.81-4.657-5.498-9.387-8.06-14.185
		c-1.301-2.437-2.57-4.891-3.806-7.361c-1.239-2.477-2.306-6.41-5.159-7.372c-0.15-0.051-0.302-0.078-0.454-0.105
		c-0.192-0.274-0.47-0.513-0.834-0.688c-1.834-0.882-3.919-0.693-5.882-0.494c-1.904,0.193-3.797,0.453-5.675,0.827
		c-3.911,0.78-7.742,1.882-11.499,3.216c-3.604,1.28-7.106,2.824-10.471,4.643c-1.741,0.941-3.499,1.916-5.117,3.059
		c-0.877,0.62-1.511,1.275-2.012,2.228c-0.438,0.834-0.749,1.806-1.297,2.55c-0.328,0.446,0.118,1.261,0.702,1.065
		c0.799-0.268,1.601-0.225,2.442-0.319c1.114-0.125,1.973-0.301,2.978-0.846c1.538-0.834,3.015-1.776,4.561-2.599
		c3.3-1.757,6.727-3.295,10.237-4.583c3.359-1.233,6.824-2.187,10.327-2.912c1.791-0.371,3.592-0.715,5.399-0.995
		c0.79-0.122,1.597-0.228,2.39-0.385c0.111,1.926,1.334,3.835,2.156,5.518c0.948,1.938,1.915,3.868,2.903,5.786
		c2.015,3.914,4.113,7.785,6.291,11.61c4.416,7.751,9.224,15.316,14.61,22.431c1.452,1.918,2.88,3.867,4.52,5.631
		c0.855,0.92,1.871,1.968,3.01,2.541c0.723,0.364,2.192,0.651,2.687-0.28c1.197-2.252-0.881-5.213-2.052-7.124
		c-0.407-0.664-0.828-1.318-1.244-1.976c1.955-0.747,3.187-2.822,3.513-4.898c0.396-2.521-0.047-5.218-0.379-7.725
		c-0.744-5.625-1.271-11.277-1.451-16.949c-0.363-11.384,0.442-22.805,2.399-34.026c0.969-5.558,2.247-11.06,3.814-16.481
		c1.284-4.443,2.779-8.931,5.108-12.948c2.204-3.801,5.102-7.201,8.985-9.357c4.13-2.292,8.779-3.252,13.451-3.624
		c5.765-0.459,11.708,0.04,17.431,0.746c3.17,0.391,6.333,0.902,9.454,1.582c3.199,0.698,6.624,1.446,9.901,1.275
		C225.989,222.965,226.851,221.024,225.408,219.897z"/>
	<g>
		<path style="fill:#F8EBF3;" d="M37.896,257.937c-0.036-0.044-0.071-0.075-0.097-0.092c0.03,0.029,0.065,0.056,0.089,0.086
			C37.89,257.934,37.893,257.935,37.896,257.937z"/>
		<path style="fill:#F8EBF3;" d="M116.182,271.588c0.02-0.745-0.228-1.538-0.445-2.24c-0.422-1.368-0.866-2.729-1.354-4.075
			c-0.985-2.719-2.121-5.411-3.582-7.911c-3.076-5.266-7.629-8.994-13.352-11.067c-5.682-2.058-11.994-2.363-17.441-5.076
			c-2.747-1.368-5.39-3.526-8.647-3.203c-2.962,0.294-5.845,2.744-5.612,5.906c0.139,1.896,1.458,3.253,2.799,4.456
			c1.147,1.029,2.37,1.979,3.626,2.875c-2.343-0.408-4.671-0.886-6.967-1.611c-4.213-1.331-7.97-3.429-11.792-5.602
			c-3.66-2.081-7.47-3.974-11.727-4.318c-3.748-0.303-7.666,0.753-10.401,3.401c-0.891,0.863-0.909,2.125-0.41,3.175
			c-0.289-0.607-0.02,0.064,0.017,0.18c0.007,0.021,0.021,0.038,0.028,0.058c-0.022,0.101-0.058,0.197-0.075,0.299
			c-0.233,1.442-0.076,2.835,0.531,4.168c0.205,0.45,0.487,0.86,0.8,1.246c-0.027,0.104-0.068,0.201-0.089,0.308
			c-0.147,0.743-0.139,1.387-0.03,2.129c0.165,1.128,0.562,2.223,1.111,3.221c0.543,0.988,1.279,1.923,2.14,2.655
			c0.716,0.608,1.635,1.305,2.608,1.59c-0.163,0.196-0.188,0.523-0.006,0.751c0.495,0.62,0.96,1.233,1.532,1.785
			c0.584,0.564,1.184,1.106,1.787,1.648c0.865,0.777,1.83,1.47,2.816,2.114c-0.062,0.151-0.065,0.323,0.024,0.48
			c1.454,2.559,5.604,3.122,8.162,3.899c3.163,0.961,6.411,1.988,9.376,3.469c2.928,1.462,5.858,2.836,8.576,4.683
			c2.979,2.024,5.326,4.698,8.157,6.872c2.087,1.602,5.227-1.57,3.659-3.658c-2.227-2.966-5.377-5.532-8.465-7.564
			c-2.931-1.929-6.204-3.688-9.54-4.801c-3.283-1.095-6.581-2.092-9.934-2.956c-1.688-0.435-3.375-0.864-5.096-1.144
			c-0.263-0.043-0.539-0.081-0.82-0.114c0.014-0.076,0.036-0.15,0.047-0.229c0.032-0.237-0.01-0.437-0.079-0.637
			c-0.008-0.118-0.005-0.239-0.036-0.35c-0.062-0.224-0.285-0.458-0.372-0.557c-0.136-0.155-0.369-0.448-0.604-0.619
			c-0.31-0.227-0.732,0.081-0.735,0.422c-0.001,0.058-0.009,0.125-0.02,0.186c-0.036,0.026-0.073,0.05-0.107,0.083
			c-0.005,0.005-0.008,0.012-0.013,0.017c-1.052-0.764-2.146-1.488-3.302-2.064c-0.714-0.356-1.428-0.704-2.154-1.035
			c-0.53-0.241-1.066-0.42-1.609-0.591c0.607-0.097,1.117-0.42,1.369-1.018c0.251-0.595,0.162-1.427-0.355-1.875
			c-0.431-0.373-0.904-0.615-1.405-0.875c-0.218-0.113-0.43-0.237-0.635-0.371c-0.081-0.053-0.161-0.108-0.24-0.165
			c0.006,0.007,0.013,0.012,0.018,0.02c-0.007-0.009-0.019-0.016-0.027-0.026c-0.001-0.001-0.003-0.002-0.004-0.003
			c-0.137-0.098-0.129-0.111-0.084-0.083c-0.137-0.133-0.309-0.254-0.437-0.378c-0.147-0.143-0.289-0.292-0.425-0.446
			c-0.057-0.065-0.217-0.194-0.238-0.283c0.144,0.19,0.176,0.231,0.095,0.123c-0.037-0.049-0.074-0.099-0.109-0.15
			c-0.132-0.185-0.255-0.375-0.371-0.57c-0.116-0.195-0.224-0.394-0.323-0.598c-0.037-0.076-0.072-0.154-0.107-0.231
			c-0.008-0.022-0.015-0.043-0.029-0.079c-0.079-0.213-0.122-0.437-0.183-0.656c0.063,0.018,0.123,0.047,0.186,0.063
			c0.355,0.091,0.73,0.138,1.097,0.157c0.64,0.033,1.104-0.248,1.495-0.677c0.566-0.521,0.608-1.24,0.193-1.816
			c0.021,0.021,0.041,0.041,0.062,0.062c-0.266-0.478-0.683-0.852-1.224-0.988c-0.225-0.057-0.453-0.104-0.679-0.163
			c-0.124-0.032-0.246-0.067-0.367-0.107c-0.019-0.006-0.074-0.023-0.128-0.039c0.184,0.055-0.105-0.046-0.158-0.072
			c-0.115-0.057-0.227-0.117-0.338-0.182c-0.156-0.09-0.34-0.191-0.481-0.314c-0.035-0.037-0.07-0.072-0.088-0.088
			c-0.079-0.072-0.155-0.145-0.229-0.221c-0.074-0.076-0.146-0.154-0.216-0.234c-0.043-0.047-0.084-0.095-0.124-0.144
			c-0.081-0.098-0.055-0.064,0.077,0.102c-0.151-0.105-0.287-0.44-0.369-0.596c-0.036-0.07-0.073-0.145-0.105-0.219
			c-0.016-0.055-0.033-0.114-0.04-0.136c-0.065-0.203-0.108-0.409-0.153-0.617c-0.003-0.013-0.004-0.016-0.006-0.026
			c-0.001-0.012,0-0.016-0.001-0.032c-0.005-0.106-0.014-0.212-0.017-0.318c-0.001-0.044-0.01-0.369,0.002-0.56
			c0.003-0.01,0.006-0.023,0.011-0.046c0.318-0.119,0.628-0.282,0.922-0.54c5.671-4.98,13.683,0.654,18.854,3.439
			c7.275,3.918,16.518,6.768,24.816,5.23c0.308-0.057,0.539-0.221,0.726-0.422c1.085,0.161,2.148,0.015,3.109-0.64
			c0.26-0.177,0.395-0.465,0.316-0.777c-0.672-2.683-3.369-3.535-5.511-4.82c-2.219-1.331-4.595-2.917-6.323-4.869
			c-0.439-0.495-0.539-0.455,0.17-0.861c0.864-0.494,1.922-0.045,2.739,0.356c2.416,1.185,4.6,2.598,7.154,3.521
			c4.912,1.776,10.165,2.354,15.073,4.146c4.413,1.611,7.778,4.635,10.276,8.567c1.407,2.215,2.547,4.595,3.505,7.035
			c0.498,1.268,0.959,2.551,1.4,3.84c0.242,0.708,0.463,1.472,0.886,2.099c0.406,0.603,0.909,0.853,1.145,1.242
			c0.692,1.137,2.677,0.726,2.607-0.706c-0.009-0.179-0.021-0.283-0.033-0.346c0.024-0.079,0.054-0.196,0.092-0.363
			C116.074,272.156,116.171,271.996,116.182,271.588z"/>
	</g>
	<path style="fill:#F8EBF3;" d="M283.912,215.987c4.729-3.694,11.526-4.642,17.29-5.604c5.567-0.929,11.227-1.499,16.875-1.442
		c10.512,0.106,20.847,2.674,27.976,10.884c6.794,7.823,9.544,18.688,11.792,28.553c2.657,11.663,4.155,23.566,4.326,35.53
		c0.097,6.799-0.218,13.61-0.916,20.374c-0.314,3.042-0.923,6.066-1.153,9.114c-0.097,1.285-0.083,2.538-0.113,3.787
		c0.131-0.212,0.268-0.421,0.398-0.633c2.829-4.633,5.704-9.236,8.509-13.885c2.81-4.657,5.498-9.387,8.06-14.185
		c1.301-2.437,2.57-4.891,3.806-7.361c1.239-2.477,2.306-6.41,5.159-7.372c0.151-0.051,0.302-0.078,0.454-0.105
		c0.192-0.274,0.47-0.513,0.834-0.688c1.834-0.882,3.919-0.693,5.882-0.494c1.904,0.193,3.797,0.453,5.675,0.827
		c3.911,0.78,7.742,1.882,11.499,3.216c3.604,1.28,7.106,2.824,10.471,4.643c1.741,0.941,3.499,1.916,5.117,3.059
		c0.877,0.62,1.511,1.275,2.012,2.228c0.438,0.834,0.749,1.806,1.297,2.55c0.328,0.446-0.118,1.261-0.702,1.065
		c-0.799-0.268-1.601-0.225-2.442-0.319c-1.114-0.125-1.973-0.301-2.978-0.846c-1.538-0.834-3.015-1.776-4.561-2.598
		c-3.3-1.757-6.727-3.296-10.237-4.583c-3.359-1.233-6.824-2.187-10.327-2.912c-1.791-0.371-3.591-0.715-5.399-0.995
		c-0.79-0.122-1.597-0.228-2.39-0.385c-0.111,1.926-1.334,3.835-2.156,5.518c-0.948,1.939-1.915,3.868-2.904,5.786
		c-2.015,3.914-4.113,7.785-6.291,11.61c-4.416,7.751-9.224,15.316-14.61,22.431c-1.452,1.918-2.88,3.867-4.52,5.631
		c-0.855,0.919-1.871,1.968-3.01,2.541c-0.723,0.364-2.192,0.651-2.687-0.28c-1.197-2.251,0.881-5.213,2.052-7.124
		c0.407-0.664,0.828-1.318,1.244-1.976c-1.955-0.747-3.187-2.822-3.513-4.898c-0.396-2.521,0.047-5.218,0.379-7.725
		c0.745-5.625,1.271-11.277,1.451-16.949c0.363-11.384-0.442-22.805-2.399-34.026c-0.969-5.558-2.247-11.06-3.814-16.481
		c-1.284-4.443-2.779-8.931-5.108-12.948c-2.204-3.801-5.102-7.201-8.985-9.356c-4.13-2.292-8.779-3.252-13.451-3.624
		c-5.764-0.459-11.708,0.04-17.431,0.746c-3.17,0.391-6.333,0.902-9.454,1.582c-3.199,0.698-6.624,1.446-9.901,1.275
		C283.331,219.055,282.469,217.113,283.912,215.987z"/>
	<path style="fill:#F8EBF3;" d="M340.347,368.807c0.132-0.527,0.61-1.071,1.204-1.063c1.268,0.017,2.534,0.573,3.582,1.176
		c1.287,0.741,2.424,1.783,3.553,2.739c0.993,0.841,2.006,1.663,3.047,2.445c1.116,0.838,1.759,1.264,3.018,1.989
		c1.127,0.649,2.27,1.289,3.438,1.861c1.148,0.561,1.536,0.728,2.634,0.958c1.117,0.235,1.568,0.274,2.596,0.141
		c0.035-0.004,0.062-0.013,0.095-0.018c0.144-0.133,0.308-0.238,0.505-0.345c-0.023,0.012,0.132-0.031,0.248-0.064
		c0.005-0.015,0.141-0.083,0.151-0.086c0.489-0.133,1.143-0.105,1.478-0.12c0.235-0.012,0.104-0.018,0.448-0.12
		c3.268-0.962,5.924-3.272,8.68-5.371c12.207-9.297,22.85-20.404,31.733-32.919c4.445-6.262,8.428-12.859,11.91-19.703
		c3.484-6.848,6.166-13.963,8.987-21.094c0.351-0.888,0.765-1.754,1.135-2.634c0.38-0.906,1.003-1.588,1.343-2.522
		c0.333-0.913,1.765-0.379,1.585,0.537c-0.18,0.922-0.02,1.775-0.17,2.687c-0.167,1.016-0.342,2.051-0.588,3.051
		c-0.457,1.861-1.044,3.717-1.652,5.534c-1.233,3.689-2.671,7.319-4.211,10.889c-3.03,7.027-6.568,13.853-10.613,20.351
		c-8.21,13.189-18.268,24.905-29.787,35.303c-2.946,2.659-5.967,5.216-9.126,7.62c-2.88,2.193-6.585,5.256-10.428,3.547
		c-0.236-0.105-0.462-0.241-0.68-0.39c-0.775,0.481-1.67,0.793-2.54,0.942c-3.011,0.518-5.95-0.375-8.699-1.545
		c-2.955-1.257-5.847-3.084-8.285-5.165c-1.272-1.086-2.552-2.337-3.44-3.761C340.681,372.344,339.956,370.366,340.347,368.807z"/>
	<g>
		<path style="fill:#F8EBF3;" d="M471.424,254.027c0.035-0.044,0.071-0.075,0.097-0.092c-0.03,0.029-0.065,0.056-0.089,0.086
			C471.43,254.023,471.427,254.025,471.424,254.027z"/>
		<path style="fill:#F8EBF3;" d="M393.138,267.677c-0.02-0.745,0.228-1.538,0.445-2.24c0.422-1.368,0.866-2.729,1.354-4.075
			c0.985-2.719,2.121-5.411,3.582-7.911c3.077-5.266,7.629-8.994,13.352-11.067c5.682-2.058,11.994-2.363,17.441-5.076
			c2.747-1.368,5.39-3.526,8.647-3.203c2.961,0.294,5.844,2.744,5.612,5.906c-0.139,1.896-1.458,3.253-2.799,4.456
			c-1.147,1.029-2.37,1.979-3.626,2.875c2.343-0.408,4.671-0.886,6.967-1.611c4.213-1.331,7.97-3.429,11.792-5.602
			c3.66-2.081,7.47-3.974,11.728-4.318c3.748-0.303,7.666,0.753,10.401,3.401c0.891,0.862,0.909,2.125,0.41,3.175
			c0.289-0.607,0.02,0.064-0.017,0.18c-0.007,0.021-0.021,0.037-0.028,0.058c0.022,0.1,0.058,0.197,0.075,0.299
			c0.233,1.442,0.076,2.835-0.531,4.168c-0.205,0.45-0.487,0.86-0.8,1.246c0.027,0.104,0.068,0.202,0.089,0.308
			c0.147,0.743,0.139,1.387,0.03,2.129c-0.166,1.128-0.562,2.223-1.111,3.221c-0.544,0.988-1.279,1.923-2.14,2.655
			c-0.716,0.608-1.635,1.305-2.608,1.59c0.163,0.196,0.188,0.524,0.006,0.752c-0.495,0.62-0.96,1.233-1.532,1.785
			c-0.584,0.564-1.184,1.106-1.787,1.648c-0.865,0.777-1.83,1.47-2.816,2.114c0.061,0.151,0.065,0.323-0.024,0.48
			c-1.454,2.559-5.604,3.122-8.161,3.899c-3.163,0.961-6.411,1.988-9.376,3.469c-2.928,1.462-5.858,2.836-8.576,4.683
			c-2.979,2.024-5.326,4.698-8.157,6.872c-2.086,1.602-5.227-1.57-3.658-3.658c2.227-2.966,5.378-5.532,8.465-7.564
			c2.931-1.929,6.204-3.688,9.54-4.801c3.284-1.095,6.581-2.093,9.934-2.956c1.688-0.435,3.375-0.864,5.096-1.144
			c0.263-0.043,0.539-0.081,0.82-0.114c-0.014-0.076-0.036-0.15-0.047-0.229c-0.032-0.237,0.01-0.437,0.079-0.637
			c0.008-0.118,0.005-0.239,0.036-0.35c0.061-0.224,0.285-0.458,0.372-0.557c0.136-0.155,0.369-0.448,0.603-0.619
			c0.31-0.227,0.732,0.081,0.735,0.422c0,0.058,0.009,0.125,0.02,0.186c0.036,0.026,0.073,0.049,0.107,0.083
			c0.005,0.005,0.008,0.012,0.013,0.017c1.052-0.764,2.146-1.488,3.302-2.064c0.714-0.356,1.428-0.704,2.154-1.035
			c0.53-0.241,1.066-0.42,1.609-0.591c-0.607-0.097-1.117-0.42-1.369-1.018c-0.251-0.595-0.162-1.427,0.355-1.875
			c0.431-0.373,0.904-0.615,1.405-0.875c0.218-0.113,0.43-0.237,0.635-0.371c0.081-0.053,0.161-0.108,0.24-0.165
			c-0.006,0.007-0.013,0.012-0.018,0.02c0.007-0.009,0.02-0.016,0.027-0.026c0.002-0.001,0.003-0.002,0.004-0.003
			c0.137-0.098,0.129-0.111,0.084-0.083c0.137-0.132,0.309-0.254,0.437-0.378c0.147-0.143,0.289-0.292,0.425-0.446
			c0.057-0.065,0.217-0.194,0.238-0.283c-0.144,0.19-0.176,0.231-0.095,0.123c0.037-0.049,0.074-0.099,0.109-0.15
			c0.132-0.185,0.255-0.375,0.371-0.57c0.116-0.195,0.224-0.394,0.323-0.598c0.037-0.076,0.072-0.154,0.108-0.231
			c0.008-0.022,0.015-0.043,0.029-0.079c0.079-0.213,0.122-0.437,0.183-0.656c-0.063,0.018-0.123,0.047-0.186,0.064
			c-0.355,0.091-0.73,0.138-1.097,0.157c-0.64,0.033-1.104-0.248-1.495-0.676c-0.566-0.521-0.608-1.24-0.193-1.816
			c-0.021,0.021-0.041,0.041-0.062,0.062c0.266-0.478,0.683-0.852,1.224-0.988c0.225-0.057,0.454-0.104,0.679-0.163
			c0.124-0.032,0.246-0.067,0.367-0.107c0.019-0.006,0.074-0.023,0.128-0.039c-0.184,0.055,0.105-0.046,0.158-0.072
			c0.115-0.057,0.227-0.117,0.338-0.182c0.156-0.09,0.34-0.191,0.481-0.314c0.035-0.037,0.07-0.072,0.088-0.088
			c0.079-0.072,0.155-0.145,0.229-0.221c0.074-0.076,0.146-0.154,0.216-0.234c0.043-0.047,0.084-0.095,0.124-0.144
			c0.081-0.099,0.055-0.064-0.078,0.102c0.151-0.105,0.288-0.44,0.369-0.596c0.036-0.07,0.073-0.145,0.105-0.219
			c0.016-0.056,0.033-0.114,0.04-0.136c0.065-0.203,0.108-0.409,0.154-0.617c0.003-0.013,0.004-0.016,0.006-0.026
			c0-0.012,0-0.016,0.001-0.032c0.005-0.106,0.014-0.212,0.017-0.318c0.001-0.044,0.01-0.369-0.002-0.56
			c-0.003-0.01-0.006-0.023-0.011-0.046c-0.317-0.119-0.628-0.282-0.922-0.54c-5.671-4.98-13.683,0.654-18.854,3.439
			c-7.275,3.918-16.518,6.768-24.816,5.23c-0.308-0.057-0.539-0.221-0.726-0.423c-1.085,0.161-2.148,0.015-3.109-0.64
			c-0.259-0.177-0.395-0.465-0.316-0.777c0.672-2.683,3.369-3.535,5.511-4.82c2.219-1.331,4.595-2.917,6.323-4.869
			c0.439-0.495,0.539-0.455-0.171-0.861c-0.864-0.494-1.921-0.045-2.739,0.356c-2.416,1.185-4.6,2.598-7.154,3.521
			c-4.912,1.776-10.165,2.354-15.073,4.146c-4.413,1.611-7.778,4.635-10.276,8.567c-1.407,2.215-2.547,4.595-3.505,7.035
			c-0.498,1.268-0.96,2.551-1.4,3.84c-0.242,0.708-0.464,1.472-0.886,2.099c-0.406,0.603-0.909,0.853-1.145,1.243
			c-0.692,1.137-2.677,0.726-2.607-0.706c0.009-0.179,0.02-0.283,0.033-0.346c-0.024-0.079-0.054-0.196-0.092-0.363
			C393.246,268.246,393.149,268.085,393.138,267.677z"/>
	</g>
	<path style="fill:#F8EBF3;" d="M345.771,436.237c-0.563-1.989-1.319-4.031-2.551-5.702c-0.17-0.23-0.355-0.426-0.533-0.637
		c0.424-0.072,0.832-0.263,1.229-0.584c2.124-1.717,2.13-4.961,1.914-7.46c-0.219-2.53-0.482-5.045-0.784-7.566
		c-0.605-5.045-1.2-10.091-1.779-15.138c-1.149-10.007-2.353-20.008-3.46-30.02c-2.226-20.13-4.594-40.244-6.542-60.403
		c-0.552-5.717-1.037-11.441-1.614-17.155c-0.284-2.814-0.565-5.629-0.876-8.44c-0.154-1.387-0.364-2.767-0.554-4.149
		c-0.204-1.485-0.751-2.834-0.982-4.317c-0.205-1.319-2.246-0.952-2.268,0.307c-0.022,1.243-0.342,2.422-0.385,3.658
		c-0.046,1.307-0.01,2.632,0.015,3.939c0.049,2.532,0.197,5.066,0.304,7.596c0.214,5.065,0.556,10.127,0.864,15.188
		c0.611,10.026,1.255,20.052,1.902,30.076c1.301,20.149,3.031,40.256,4.949,60.355c0.545,5.705,1.151,11.404,1.757,17.102
		c0.318,2.997,0.656,5.983,1.087,8.966c0.225,1.555,0.496,3.38,1.176,4.932c-0.072-0.035-0.134-0.076-0.207-0.11
		c-0.583-0.272-1.243,0.051-1.27,0.729c-0.034,0.873-0.072,1.723-0.073,2.572c4.058,1.739,4.649,8.192,1.451,11.08
		c0.131,1.6,0.195,3.274,0.191,4.987c-10.536,5.128-22.018,8.291-33.446,10.713c-12.102,2.565-24.401,4.031-36.747,4.711
		c-25.388,1.397-50.834-0.398-76.065-3.219c-3.538-0.396-7.073-0.812-10.606-1.244c-1.475-0.18-3.122-0.273-4.5-0.51
		c-0.036-0.006-0.365-0.07-0.567-0.114c-0.206-0.63,0.005-2.038-0.001-2.636c-0.042-3.834-0.089-7.668-0.139-11.503l-0.052-3.996
		c0.561,0.583,1.111,0.92,1.944,1.244c0.063-0.605,0.191-1.179,0.387-1.724c0.046-0.652,0.218-1.29,0.517-1.884
		c-0.318-0.052-0.635-0.095-0.945-0.11c-0.137-0.006-0.266,0.011-0.396,0.026c0.165-0.184,0.327-0.373,0.462-0.605
		c0.684-1.17,0.628-3.067,0.798-4.415c0.164-1.297,0.325-2.594,0.483-3.892c0.633-5.191,1.219-10.387,1.759-15.589
		c2.161-20.811,3.536-41.688,4.139-62.602c0.302-10.46,0.324-20.918,0.158-31.38c-0.166-10.459-0.571-20.974-1.681-31.38
		c-0.139-1.308-0.319-2.615-0.483-3.92c-0.169-1.342-0.658-2.572-0.831-3.92c-0.057-0.442-0.692-0.471-0.711,0
		c-0.054,1.335-0.427,2.593-0.499,3.92c-0.07,1.306-0.136,2.614-0.185,3.92c-0.099,2.611-0.166,5.23-0.221,7.843
		c-0.111,5.229-0.1,10.461-0.22,15.691c-0.24,10.464-0.424,20.922-0.769,31.384c-0.223,6.765-0.533,13.528-0.909,20.288
		c-0.258-0.133-0.632-0.034-0.784,0.222c-0.287,0.482-0.564,0.976-0.873,1.445c-0.271,0.203-0.52,0.42-0.783,0.656
		c-0.242,0.216-0.665,0.663-0.769,0.758c-0.556,0.511-1.454,1.209-2.134,1.841c-0.308,0.287-0.63,0.56-0.958,0.823
		c-0.079,0.058-0.352,0.267-0.353,0.268c-0.199,0.144-0.4,0.285-0.603,0.423c-0.733,0.499-1.497,0.95-2.255,1.409
		c-1.568,0.948-3.063,1.986-4.372,3.195c-0.467,0.193-0.92,0.413-1.333,0.65c-1.287,0.742-2.424,1.783-3.553,2.74
		c-0.993,0.841-2.006,1.663-3.047,2.445c-1.116,0.838-1.759,1.265-3.018,1.989c-1.127,0.649-2.27,1.289-3.438,1.861
		c-1.148,0.561-1.536,0.728-2.634,0.959c-1.117,0.234-1.567,0.274-2.596,0.141c-0.035-0.005-0.062-0.013-0.095-0.018
		c-0.144-0.133-0.308-0.238-0.505-0.345c0.023,0.012-0.132-0.031-0.249-0.064c-0.005-0.015-0.141-0.083-0.151-0.086
		c-0.488-0.133-1.143-0.105-1.478-0.12c-0.235-0.012-0.104-0.018-0.448-0.12c-3.268-0.962-5.924-3.272-8.68-5.371
		c-12.207-9.297-22.85-20.404-31.733-32.919c-4.445-6.262-8.428-12.859-11.91-19.703c-3.484-6.848-6.166-13.963-8.987-21.095
		c-0.351-0.888-0.765-1.754-1.135-2.634c-0.38-0.906-1.003-1.589-1.343-2.522c-0.333-0.913-1.765-0.379-1.585,0.537
		c0.18,0.922,0.02,1.775,0.17,2.687c0.167,1.017,0.342,2.051,0.588,3.052c0.457,1.861,1.044,3.717,1.651,5.534
		c1.233,3.689,2.672,7.319,4.211,10.889c3.03,7.027,6.569,13.853,10.613,20.351c8.209,13.189,18.268,24.905,29.786,35.303
		c2.946,2.66,5.967,5.216,9.126,7.62c2.88,2.193,6.585,5.256,10.428,3.547c0.236-0.105,0.463-0.241,0.68-0.39
		c0.775,0.481,1.671,0.793,2.541,0.942c3.01,0.518,5.95-0.375,8.699-1.545c2.955-1.257,5.847-3.084,8.285-5.165
		c1.272-1.086,2.552-2.337,3.44-3.761c0.414-0.664,0.803-1.499,1.037-2.363c0.109-0.068,0.216-0.135,0.327-0.204
		c1.719-1.064,3.546-1.937,5.245-3.036c1.701-1.101,3.467-2.384,4.577-4.122c-0.749,11.901-1.721,23.789-2.917,35.65
		c-0.525,5.206-1.096,10.408-1.714,15.604c-0.309,2.598-0.629,5.195-0.961,7.79c-0.151,1.185-0.306,2.37-0.463,3.554
		c-0.38,1.045-0.723,1.987-0.829,3.104c-0.088,0.934-0.139,1.868-0.171,2.805l-0.211,6.173c-0.14,4.114-0.276,8.229-0.409,12.344
		c-0.063,1.97-0.093,3.951,1.336,5.491c1.216,1.31,2.972,1.651,4.656,1.903c0.652,0.097,1.307,0.175,1.961,0.266
		c1.172-0.61,2.62-0.435,3.509,0.477c1.961,0.247,3.923,0.481,5.885,0.717c14.967,1.803,29.984,3.272,45.047,3.976
		c29.594,1.383,59.721-0.206,88.303-8.519c3.932-1.144,7.827-2.414,11.674-3.817c1.965-0.716,3.966-1.326,5.944-2.007
		c2.337-0.805,5.548-1.315,6.402-3.962C347.337,445.398,346.896,440.213,345.771,436.237z"/>
	<path style="fill:#F8EBF3;" d="M183.008,481.723c-0.293-2.912-0.629-5.821-1.131-8.704c-0.284-1.628-0.539-3.269-1.011-4.855
		c-0.365-1.225-0.687-2.942-1.916-3.634c-1.125-0.633-3.93,0.074-2.904,1.78c0.015,0.026,0.038,0.038,0.054,0.061
		c-0.039,0.166-0.064,0.334-0.078,0.528c-0.044,0.631,0.034,1.28,0.055,1.912c0.049,1.469,0.25,2.921,0.397,4.382
		c0.287,2.842,0.602,5.683,0.842,8.529c0.249,2.941,0.288,5.909,0.597,8.842c0.116,1.098,0.33,2.165,0.445,3.245
		c0.086,0.812,0.003,1.483-0.007,2.237c-0.023,1.759,2.305,1.618,3.339,0.713c1.832-1.604,1.928-4.209,1.941-6.472
		C183.65,487.443,183.292,484.552,183.008,481.723z"/>
	<path style="fill:#F8EBF3;" d="M344.78,477.346c-0.207-2.628-0.518-5.241-0.818-7.86c-0.313-2.732-0.314-5.829-1.616-8.306
		c-1.02-1.94-3.732-1.257-4.369,0.571c-0.779,2.234-0.416,4.903-0.337,7.227c0.081,2.366,0.115,4.738,0.28,7.099
		c0.165,2.366,0.33,4.733,0.495,7.099c0.035,0.506,0.056,1.017,0.106,1.521c0.039,0.374,0.102,0.745,0.169,1.115
		c-0.008-0.017-0.005,0.074,0.01,0.296c0.011,0.467,0.092,0.93,0.228,1.374c0.068,0.185,0.148,0.365,0.224,0.547
		c-0.022-0.035-0.021,0.003,0.001,0.113c0.11,0.685,0.807,1.272,1.443,1.443c2.762,0.743,4.636-1.902,4.748-4.379
		C345.46,482.629,344.983,479.918,344.78,477.346z"/>
	<path style="fill:#F8EBF3;" d="M92.322,236.594c0.614,25.573,8.211,51.999,26.213,70.172
		c18.002,18.173,47.764,25.829,70.218,13.576c21.926-11.965,31.456-38.072,48.612-56.228c15.229-16.116,37.048-25.812,59.215-26.314
		c15.563-0.352,30.897,3.608,46.435,4.565c15.538,0.957,32.507-1.725,43.389-12.856c12.767-13.058,13.31-34.715,5.268-51.111
		c-8.042-16.396-23.007-28.321-38.635-37.768c-44.989-27.195-96.599-35.771-148.365-30.426c-33.716,3.481-69.703,8.939-89.358,40.9
		C99.662,176.556,91.605,206.737,92.322,236.594z"/>
	<path style="fill:#F8EBF3;" d="M242.482,328.297c12.811-10.559,23.652-23.336,36.415-33.952
		c18.236-15.169,40.305-25.691,63.572-30.309c21.642-4.296,45.979-2.879,63.093,11.048c10.562,8.595,17.319,21.164,21.102,34.245
		c9.089,31.426,1.283,67.213-20.067,91.999c-16.706,19.395-40.166,31.513-63.429,42.194c-18.386,8.442-37.293,16.36-57.294,19.403
		c-16.906,2.572-34.126,1.589-51.198,0.601c-32.687-1.893-66.937-4.264-94.692-21.632c-15.994-10.008-29.803-27.127-27.819-45.889
		c2.831-26.782,30.54-31.122,51.771-35.382C192.939,354.803,219.131,347.541,242.482,328.297z"/>
	<g>
		<path style="fill:#422127;" d="M338.437,140.686c-0.062-3.732-0.895-7.827-2.189-11.339c-0.37-1.005-0.873-2.094-1.516-3.06
			c1.201-3.45,1.604-7.16,1.076-10.786c-0.609-4.18-2.205-8.264-4.694-11.689c-0.155-0.214-0.317-0.433-0.481-0.655
			c0.105-0.198,0.209-0.397,0.309-0.587c2.12-4.048,3.345-8.532,3.54-13.098c0.375-8.794-3.789-17.06-11.141-21.902
			c-3.361-2.213-7.317-3.497-11.334-3.593c-0.627-4.925-3.516-9.497-7.833-12.03c-2.396-1.406-5.442-2.274-8.231-2.07
			c-0.66,0.048-1.322,0.142-1.975,0.276c-0.078-0.205-0.156-0.408-0.228-0.602c-1.44-3.873-3.33-7.743-6.27-10.706
			c-5.531-5.575-13.819-7.272-21.357-5.943c-1.985,0.35-3.921,0.887-5.792,1.626c-0.38-0.38-0.774-0.728-1.144-1.033
			c-1.593-1.312-3.344-2.456-5.188-3.38c-3.673-1.84-7.706-2.84-11.811-2.955c-8.01-0.224-15.825,3.486-21.045,9.508
			c-0.717,0.828-1.392,1.701-2.014,2.611c-1.492-1.097-3.58-1.715-5.12-1.93c-2.953-0.411-6.02,0.06-8.716,1.323
			c-3.541,1.659-6.575,5.003-7.996,8.82c-0.436-0.088-0.864-0.165-1.269-0.225c-2.206-0.326-4.435-0.361-6.647-0.072
			c-4.477,0.585-8.828,2.23-12.471,4.919c-7.532,5.561-11.375,14.998-10.083,24.266c0.203,1.456,0.525,2.877,0.954,4.268
			c-1.12,0.583-2.129,1.265-2.783,1.744c-2.659,1.947-4.921,4.49-6.423,7.434c-3.146,6.165-2.696,13.482,0.765,19.419
			c0.809,1.389,1.806,2.686,2.919,3.854c-1.768,1.978-2.941,4.605-3.247,7.007c-0.518,4.066,0.844,8.24,3.614,11.212
			c-5.823,4.265-8.639,11.765-8.547,18.889c0.063,4.88,1.332,9.71,3.107,14.229c1.583,4.03,3.413,8.462,7.49,10.541
			c2.015,1.028,4.256,1.405,6.495,1.507c0.501,0.023,1.005,0.025,1.509,0.02c0.1,6.914,6.706,12.691,13.802,12.789
			c0.861,5.87,4.38,11.238,9.54,14.254c3.867,2.261,8.44,2.947,12.797,2.235c0.787,1.256,1.769,2.422,2.785,3.464
			c2.674,2.742,6.048,4.717,9.651,5.965c7.743,2.681,16.263,0.893,23.159-3.214c3.427-2.041,6.505-4.669,9.162-7.648
			c4.373,5.011,10.394,8.516,16.976,9.695c7.42,1.329,15.174-0.397,21.383-4.669c1.51-1.039,2.933-2.227,4.232-3.526
			c4.978,2.174,11.297,1.265,15.705-2.008c5.459-4.053,8.069-11.233,6.697-17.828c4.422-1.514,7.96-5.13,9.934-9.341
			c2.53-5.397,2.468-11.454,0.759-17.084c0.869-0.683,1.698-1.422,2.461-2.213C335.974,152.957,338.54,146.846,338.437,140.686z"/>
		<path style="fill:#2A1214;" d="M338.437,140.686c-0.062-3.732-0.895-7.827-2.189-11.338c-0.37-1.005-0.873-2.094-1.516-3.06
			c0.693-1.991,1.111-4.069,1.247-6.166c-1.651,1.012-3.536,1.568-5.469,1.404c-4.004-0.339-7.547-4.488-6.445-8.352
			c-5.196,4.08-13.139,4.185-18.441,0.243s-7.491-11.578-5.081-17.729c-3.902,4.596-11.522,4.419-16.442,0.934
			c-4.921-3.485-7.581-9.356-9.154-15.176c-3.756,5.75-10.649,9.302-17.511,9.023c-6.862-0.278-13.445-4.377-16.722-10.413
			c-3.526,6.139-7.7,12.192-13.72,15.917c-6.02,3.725-14.287,4.588-20.008,0.419c-0.616,6.546-2.584,13.325-7.382,17.821
			c-4.798,4.495-12.986,5.789-17.92,1.442c-1.04,5.562-6.12,10.106-11.763,10.522c-4.165,0.307-8.352-1.659-11.004-4.859
			c-0.135,3.67,1.204,7.323,3.699,10c-5.823,4.265-8.639,11.765-8.547,18.888c0.063,4.88,1.332,9.71,3.107,14.229
			c1.583,4.03,3.413,8.462,7.49,10.541c2.015,1.028,4.256,1.405,6.495,1.507c0.501,0.023,1.005,0.026,1.509,0.02
			c0.1,6.914,6.706,12.691,13.802,12.789c0.861,5.87,4.38,11.238,9.54,14.255c3.867,2.261,8.44,2.947,12.797,2.235
			c0.787,1.256,1.769,2.422,2.785,3.464c2.674,2.742,6.048,4.717,9.651,5.965c7.743,2.681,16.263,0.893,23.159-3.214
			c3.428-2.041,6.505-4.669,9.162-7.648c4.373,5.011,10.394,8.516,16.976,9.695c7.42,1.329,15.174-0.398,21.383-4.669
			c1.51-1.039,2.933-2.227,4.232-3.526c4.978,2.174,11.297,1.265,15.705-2.008c5.458-4.053,8.069-11.233,6.697-17.828
			c4.422-1.514,7.96-5.13,9.934-9.341c2.53-5.397,2.468-11.454,0.76-17.084c0.869-0.683,1.698-1.422,2.461-2.213
			C335.974,152.957,338.54,146.846,338.437,140.686z"/>
		<path style="fill:#422127;" d="M178.236,457.589c0,0-1.223,27.649,0,42.411h166.232c0,0,1.921-35.379-0.831-54.946
			C340.886,425.487,178.236,457.589,178.236,457.589z"/>
		<path style="fill:#EBBB50;" d="M229.761,221.017c-9.028-4.039-49.385-12.294-58.557-2.204
			c-21.692,23.861-26.293,82.548-25.987,93.248c0,0-0.612-2.14-5.809-10.089c-5.198-7.949-2.446-6.115-7.338-13.146
			c-4.892-7.032-8.255-11.006-12.535-12.535c-4.28-1.529-34.242,4.892-40.051,19.873c-5.809,14.981,5.809,21.707,8.561,30.879
			c2.752,9.172,0,14.981,6.726,21.401c6.726,6.42,9.478,18.344,20.178,25.987c10.701,7.643,17.732,18.344,33.019,17.427
			s34.854-25.376,34.854-25.376s-3.057,25.07-5.197,33.631c-2.14,8.561-7.643,48.917-3.057,58.701
			c4.586,9.784,150.144,20.455,171.516-0.917c6.726-6.726-3.975-86.217-3.975-86.217s11.924,15.287,25.07,12.535
			c13.147-2.752,29.656-17.427,32.713-24.459c3.057-7.032,17.427-21.401,18.65-29.045c1.223-7.643,14.064-31.49,11.618-39.439
			c-2.446-7.949-29.35-20.484-38.828-17.121c-9.478,3.363-13.181,8.021-15.745,13.911c-2.564,5.89-6.691,14.603-6.691,14.603
			s-2.328-63.062-25.258-88.132c-12.362-13.515-61.385,7.268-61.385,7.268s-31.864-1.765-33.087-2.071
			C247.943,219.424,229.761,221.017,229.761,221.017z"/>
		<path style="fill:#A26349;" d="M234.335,196.163l-3.656,24.548c0,0,27.682,18.02,52.492,0.784l-3.395-26.376L234.335,196.163z"/>
		<path style="fill:#A26349;" d="M395.2,274.316c1.3-5.673,6.217-23.164,13.809-28.526c7.592-5.361,23.362-6.838,33.96-10.676
			c10.598-3.838,11.896,3.006,8.719,6.239c-3.177,3.233-11.263,7.621-11.263,7.621s23.823-4.875,30.841-8.078
			c7.017-3.204,10.539,0.32,8.604,3.987c0,0,6.612,1.243,4.503,6.816c0,0,3.666,5.458-0.782,8.576c0,0,0.404,2.599-4.997,5.629
			c-5.4,3.031-12.996,9.064-24.027,10.621c-11.031,1.557-24.848,6.284-28.907,11.457C421.674,293.062,392.541,285.923,395.2,274.316
			z"/>
		<path style="fill:#A26349;" d="M115.713,276.835c-1.3-5.673-6.217-23.164-13.809-28.526c-7.592-5.361-23.362-6.838-33.96-10.676
			c-10.598-3.838-11.896,3.006-8.719,6.239c3.177,3.233,11.263,7.621,11.263,7.621s-23.823-4.875-30.841-8.078
			s-10.539,0.32-8.604,3.987c0,0-6.612,1.243-4.503,6.816c0,0-3.666,5.458,0.782,8.576c0,0-0.404,2.599,4.997,5.63
			c5.4,3.031,12.996,9.064,24.027,10.621c11.031,1.557,24.848,6.284,28.907,11.457C89.238,295.581,118.372,288.443,115.713,276.835z
			"/>
		<path style="fill:#8C4732;" d="M280.044,197.208l-2.549-2.037l-43.161,0.992l-3.063,20.563c4.468,1.74,9.41,2.532,14.22,2.806
			c7.753,0.441,15.669-0.256,22.924-3.023c4.86-1.853,9.406-4.697,13.031-8.401L280.044,197.208z"/>
		<path style="fill:#A26349;" d="M304.369,129.001c6.388,40.246-4.152,83.048-45.996,82.728
			c-45.447-0.347-57.495-46.954-57.495-46.954c-4.152,0.639-14.054-1.917-13.096-14.054c0.958-12.138,11.476-9.182,11.476-9.182
			s16.952-8.066,18.549-24.037c0,0,21.081,6.388,31.622-11.18c0,0,17.887,15.332,32.58,3.514
			C282.01,109.837,288.718,125.807,304.369,129.001z"/>
		<g>
			<path style="fill:#8C4732;" d="M304.369,129.001c-15.651-3.194-22.359-19.165-22.359-19.165
				c-14.693,11.818-32.58-3.513-32.58-3.513c-10.541,17.568-31.622,11.179-31.622,11.179c-1.458,14.584-15.713,22.572-18.18,23.851
				c9.546-0.842,18.37-7.821,21.178-17.021c10.017,2.901,21.59-0.605,28.312-8.578c6.013,9.065,19.82,11.733,28.778,5.562
				c4.802,5.274,10.235,10.888,17.318,11.731c3.287,0.391,6.581-0.415,9.459-2.034C304.576,130.342,304.475,129.671,304.369,129.001
				z"/>
			<path style="fill:#8C4732;" d="M197.597,141.267l0.086,0.172c0.309,0,0.615-0.027,0.923-0.04
				C198.336,141.352,197.995,141.302,197.597,141.267z"/>
		</g>
		<path style="fill:#8C4732;" d="M199.601,151.812c-0.543-1.337-1.529-2.567-2.761-3.334c-1.167-0.725-2.564-1.281-3.955-1.142
			c-0.573,0.058-1.066,0.397-1.138,1.005c-0.063,0.53,0.256,1.164,0.83,1.272c0.519,0.098,1.052,0.223,1.551,0.396
			c0.235,0.081,0.28,0.103,0.501,0.218c0.132,0.069,0.256,0.141,0.379,0.224c0.141,0.094,0.061,0.039,0.139,0.103
			c0.382,0.311,0.761,0.659,1.063,1.051c0.024,0.041,0.151,0.226,0.149,0.221c0.066,0.103,0.127,0.208,0.184,0.317
			c0.01,0.019,0.026,0.05,0.042,0.083c-0.334-0.021-0.669,0.054-0.951,0.257c-1.282,0.925-2.027,2.338-1.987,3.938
			c0.038,1.52,0.774,3.067,2.18,3.77c0.73,0.365,1.593,0.308,2.191-0.283C200.076,157.878,200.688,154.489,199.601,151.812z"/>
		<path style="fill:#8C4732;" d="M480.35,244.581c-1.376-0.704-2.873-0.398-4.341-0.155c-1.655,0.274-3.283,0.685-4.907,1.1
			c-3.305,0.843-6.608,1.691-9.912,2.537c-3.226,0.825-6.438,1.712-9.637,2.635c-3.25,0.937-6.631,1.689-9.717,3.092
			c-0.244,0.111-0.376,0.414-0.382,0.665c-0.002,0.094-0.012,0.184,0.037,0.269c0.023,0.04,0.046,0.08,0.069,0.12
			c0.127,0.222,0.402,0.4,0.665,0.382c3.228-0.225,6.404-1.127,9.556-1.819c3.255-0.715,6.506-1.457,9.74-2.264
			c3.151-0.786,6.3-1.583,9.45-2.375c1.559-0.392,3.117-0.796,4.695-1.106c1.527-0.301,3.325-0.202,4.686-1.012
			C481.088,246.209,481.168,244.999,480.35,244.581z"/>
		<path style="fill:#8C4732;" d="M482.403,251.042c-2.924-0.433-5.792,0.897-8.411,2.045c-2.835,1.243-5.722,2.337-8.689,3.225
			c-2.866,0.858-5.774,1.574-8.711,2.144c-2.828,0.549-6.112,0.616-8.719,1.91c-0.213,0.105-0.121,0.385,0.06,0.457
			c2.673,1.059,6,0.525,8.771,0.167c2.934-0.38,5.845-0.937,8.696-1.729c2.885-0.801,5.717-1.783,8.481-2.932
			c1.395-0.58,2.767-1.229,4.195-1.728c1.428-0.499,2.838-0.678,4.327-0.882C483.734,253.535,483.723,251.237,482.403,251.042z"/>
		<path style="fill:#8C4732;" d="M480.924,259.39c-0.243-0.196-0.389-0.455-0.441-0.779c-0.075-0.271-0.511-0.368-0.643-0.084
			c-0.125,0.271-0.215,0.531-0.298,0.794c-2.118,0.027-4.362,0.655-6.31,1.237c-2.557,0.763-5.039,1.754-7.53,2.704
			c-2.404,0.916-4.823,1.768-7.306,2.446c-1.267,0.346-2.562,0.621-3.86,0.825c-1.264,0.199-2.576,0.216-3.815,0.541
			c-0.329,0.087-0.423,0.596-0.099,0.757c2.161,1.072,4.939,0.79,7.243,0.439c2.601-0.397,5.109-1.201,7.592-2.051
			c2.521-0.863,5.017-1.802,7.571-2.567c1.295-0.388,2.604-0.748,3.928-1.022c1.307-0.271,2.681-0.292,3.967-0.628
			C482.272,261.65,482.15,259.797,480.924,259.39z"/>
		<path style="fill:#8C4732;" d="M61.623,254.735c-0.481-0.081-0.89,0.074-1.147,0.369c-0.007-0.003-0.015-0.005-0.022-0.008
			c-0.174-0.168-0.647-0.259-0.875-0.35c-0.584-0.231-1.169-0.459-1.756-0.683c-1.247-0.477-2.5-0.937-3.758-1.382
			c-2.443-0.863-4.907-1.665-7.394-2.395c-2.41-0.707-4.835-1.382-7.291-1.912c-2.527-0.545-5.098-1.246-7.678-1.466
			c-1.156-0.098-1.288,1.624-0.264,1.95c1.567,0.498,3.203,0.778,4.799,1.171c1.601,0.394,3.179,0.871,4.771,1.301
			c3.109,0.839,6.189,1.777,9.246,2.789c3.059,1.013,6.07,2.142,9.069,3.316c0.99,0.388,2.232,0.706,3.051-0.224
			C63.108,256.378,62.801,254.933,61.623,254.735z"/>
		<path style="fill:#8C4732;" d="M59.848,262.04c-1.052-0.645-2.545-0.77-3.716-1.057c-1.401-0.344-2.8-0.695-4.195-1.064
			c-2.849-0.753-5.664-1.61-8.434-2.614c-2.624-0.95-5.249-1.921-7.981-2.519c-2.503-0.548-5.704-1.224-8.169-0.353
			c-0.442,0.156-0.415,0.708,0,0.874c1.334,0.533,2.703,0.582,4.113,0.846c1.393,0.261,2.783,0.598,4.14,1.008
			c2.675,0.808,5.246,1.913,7.863,2.885c2.62,0.973,5.288,1.803,7.98,2.548c1.39,0.385,2.787,0.743,4.188,1.09
			c1.35,0.335,2.791,0.904,4.181,0.659C61.064,264.123,60.772,262.33,59.848,262.04z"/>
		<path style="fill:#8C4732;" d="M58.533,273.11c-0.838-2.335-3.9-3.036-5.943-3.883c-2.65-1.098-5.322-2.143-8.027-3.096
			c-2.626-0.926-5.286-1.737-8.002-2.354c-2.397-0.544-5.416-1.452-7.864-0.909c-0.322,0.072-0.357,0.527-0.089,0.685
			c1.039,0.617,2.216,0.845,3.371,1.172c1.336,0.379,2.671,0.763,3.994,1.185c2.58,0.824,5.136,1.733,7.667,2.697
			c2.5,0.952,4.965,1.99,7.418,3.054c2.072,0.898,4.89,2.859,7.224,1.889C58.45,273.482,58.605,273.311,58.533,273.11z"/>
		<path style="fill:#5E303B;" d="M204.584,59.896c-0.521-1.662-2.569-1.895-4.054-1.783c-1.389,0.105-2.717,0.49-3.942,1.156
			c-0.216,0.118-0.425,0.255-0.634,0.391c-0.714-0.564-1.631-0.896-2.5-1.129c-1.015-0.273-2.098-0.404-3.148-0.37
			c-2.064,0.068-4.132,0.703-5.79,1.951c-1.692,1.273-2.909,2.958-3.659,4.934c-0.352,0.926-0.621,1.993-0.599,2.988
			c0.019,0.873,0.265,1.966,1.029,2.425c0.435,0.428,1.063,0.376,1.421-0.081c0.525-0.439,0.692-1.255,0.806-1.903
			c0.135-0.762,0.253-1.51,0.51-2.243c0.415-1.183,1.32-2.462,2.302-3.219c1.166-0.897,2.616-1.355,3.979-1.403
			c0.848-0.03,1.427,0.027,2.233,0.241c0.339,0.09,0.636,0.21,0.929,0.334c-0.288,0.508-0.494,1.064-0.575,1.641
			c-0.042,0.301,0.022,0.518,0.01,0.817c-0.035-0.152-0.047-0.151-0.036,0.004c0.012,0.12,0.029,0.24,0.05,0.358
			c0.042,0.16,0.11,0.323,0.202,0.464c0.006,0.009,0.008,0.01,0.013,0.018c0.001,0.042,0.002,0.085,0.004,0.127
			c0.033,0.764,1.032,0.86,1.289,0.174c0.004-0.009,0.001-0.011,0.003-0.019c0.118-0.065,0.236-0.138,0.333-0.229
			c0.115-0.107,0.194-0.244,0.295-0.361c0.026-0.012,0.179-0.143,0.205-0.172c0.323-0.353,0.612-0.733,0.936-1.085
			c0.349-0.38,0.721-0.734,1.106-1.077c0.014-0.012,0.018-0.016,0.027-0.025c0.009-0.006,0.012-0.008,0.023-0.015
			c0.103-0.07,0.203-0.144,0.308-0.213c0.209-0.137,0.425-0.264,0.646-0.381c0.111-0.058,0.223-0.114,0.336-0.167
			c0.086-0.04,0.458-0.158,0.051-0.026c0.237-0.077,0.468-0.172,0.708-0.241c0.239-0.069,0.481-0.126,0.726-0.171
			c0.081-0.015,0.163-0.029,0.245-0.041c-0.071,0.01-0.141,0.019-0.212,0.029c0.086-0.047,0.267-0.026,0.369-0.033
			c0.246-0.015,0.492-0.018,0.738-0.007c0.123,0.006,0.245,0.019,0.368,0.027l0,0c0.01,0.002,0.013,0.004,0.026,0.007
			c0.744,0.173,1.633,0.207,2.314-0.193C204.466,61.104,204.759,60.454,204.584,59.896z"/>
		<path style="fill:#5E303B;" d="M288.643,65.042c-0.61-1.398-1.54-2.683-2.648-3.729c-0.763-0.721-1.659-1.374-2.627-1.883
			c0.126-0.681,0.064-1.422-0.07-2.17c-0.429-2.4-1.869-4.702-3.701-6.285c-1.993-1.721-4.411-2.737-7.044-2.897
			c-2.353-0.143-6.226,0.484-7.243,2.944c-0.332,0.802,0.487,1.514,1.194,1.567c0.87,0.064,1.819-0.423,2.647-0.656
			c0.81-0.227,1.585-0.38,2.427-0.399c1.621-0.037,3.15,0.339,4.534,1.184c1.299,0.794,2.338,1.938,3.048,3.279
			c0.342,0.646,0.6,1.347,0.716,2.08c0.017,0.106,0.022,0.209,0.032,0.313c-0.933-0.064-1.873,0.052-2.782,0.415
			c-0.455,0.182-0.803,0.535-0.803,1.055c0,0.451,0.336,0.969,0.803,1.055c1.263,0.231,2.485,0.634,3.691,1.065
			c0.028,0.01,0.042,0.015,0.059,0.02c0.019,0.009,0.037,0.019,0.071,0.035c0.131,0.063,0.262,0.124,0.391,0.19
			c0.302,0.155,0.596,0.327,0.88,0.512c0.122,0.08,0.243,0.162,0.362,0.247c0.044,0.031,0.111,0.082,0.159,0.119
			c0.251,0.201,0.497,0.408,0.731,0.63c0.23,0.218,0.45,0.447,0.659,0.685c0.081,0.092,0.158,0.187,0.235,0.281
			c-0.034-0.038,0.147,0.191,0.169,0.223c0.366,0.516,0.672,1.065,0.94,1.637c0.01,0.02,0.014,0.028,0.02,0.042
			c0.007,0.023,0.02,0.061,0.049,0.138c0.059,0.158,0.113,0.318,0.163,0.479c0.085,0.276,0.157,0.556,0.214,0.84
			c0.015,0.076,0.085,0.554,0.065,0.374c0.012,0.1,0.024,0.2,0.036,0.3c0.05,0.425,0.049,0.915,0.199,1.311
			c0.236,0.625,0.671,1.08,1.362,1.173c0.593,0.08,1.364-0.195,1.632-0.782C289.988,68.74,289.35,66.661,288.643,65.042z"/>
		<g>
			<path style="fill:#5E303B;" d="M323.659,88.824c-1.168-2.609-3.283-5.383-6.304-5.84c-0.882-0.133-1.891-0.186-2.729,0.185
				c-0.162,0.072-0.279,0.162-0.413,0.26c0.012-0.012-0.241,0.158-0.275,0.186c-0.138,0.114-0.269,0.228-0.381,0.368
				c-0.133,0.168-0.228,0.355-0.29,0.562c-0.022,0.074-0.035,0.122-0.044,0.204c-0.009,0.077-0.036,0.574,0.02,0.199
				c-0.038,0.253,0.058,0.443,0.28,0.551c0.159,0.139,0.342,0.25,0.543,0.318c0.078,0.027,0.44,0.093,0.426,0.093
				c0.11,0.019,0.221,0.034,0.332,0.051c0.24,0.064,0.484,0.106,0.749,0.105c0.001,0,0,0,0.001,0
				c0.052,0.01,0.103,0.019,0.154,0.031c0.12,0.024,0.241,0.046,0.361,0.073c0.27,0.059,0.533,0.139,0.793,0.234
				c0.119,0.043,0.236,0.093,0.356,0.132c-0.348-0.114,0.085,0.04,0.14,0.068c0.249,0.124,0.489,0.266,0.718,0.424
				c0.038,0.026,0.072,0.053,0.101,0.076c0.112,0.098,0.224,0.194,0.332,0.297c0.219,0.209,0.406,0.443,0.613,0.661
				c0.022,0.023,0.023,0.022,0.028,0.025c0.01,0.016,0.017,0.027,0.048,0.071c0.095,0.134,0.19,0.269,0.28,0.406
				c0.333,0.509,0.62,1.048,0.878,1.599c0.059,0.126,0.113,0.255,0.172,0.38c0.009,0.019,0.014,0.028,0.018,0.036
				c0.007,0.019,0.017,0.042,0.03,0.076c0.123,0.309,0.244,0.618,0.358,0.931c0.107,0.293,0.211,0.588,0.293,0.889
				c0.042,0.153,0.079,0.312,0.106,0.47c-0.002,0.035,0.008,0.175,0.007,0.239c-0.001,0.071-0.006,0.174-0.007,0.223
				c-0.014,0.098-0.026,0.184-0.034,0.244l-0.024,0.092c-0.066,0.298-0.083,0.563-0.052,0.823c-0.007,0.087-0.013,0.214-0.013,0.292
				c0,0.045,0.012,0.089,0.015,0.134c-0.044,0.047-0.088,0.094-0.122,0.152c-0.06,0.102-0.074,0.262,0,0.363
				c0.161,0.218,0.322,0.259,0.559,0.366c0.26,0.117,0.465,0.265,0.77,0.264c0.086,0,0.202-0.022,0.278-0.034
				c0.054,0.001,0.103-0.016,0.153-0.029c-0.141,0.09,0.336-0.06,0.363-0.067c0.139-0.038,0.314-0.118,0.441-0.188
				c0.264-0.145,0.445-0.338,0.626-0.571c0.367-0.476,0.548-1.009,0.618-1.604C325.128,91.991,324.319,90.297,323.659,88.824z"/>
			<path style="fill:#5E303B;" d="M314.492,85.911c-0.022-0.004-0.044-0.007-0.066-0.01
				C314.474,85.909,314.489,85.911,314.492,85.911z"/>
		</g>
		<path style="fill:#5E303B;" d="M188.673,91.292c-0.131-0.248-0.275-0.484-0.417-0.746c-0.174-0.32-0.621-0.353-0.871-0.112
			c-0.172,0.167-0.424,0.261-0.631,0.388c-0.617,0.295-0.946,0.905-1.332,1.54c-0.089,0.146-0.179,0.291-0.274,0.433
			c-0.023,0.034-0.099,0.136-0.141,0.196c-0.165,0.203-0.338,0.401-0.523,0.587c-0.186,0.187-0.385,0.36-0.587,0.529
			c-0.059,0.045-0.181,0.14-0.2,0.153c-0.122,0.086-0.246,0.168-0.373,0.246c-0.253,0.158-0.513,0.302-0.781,0.433
			c-0.059,0.029-0.184,0.084-0.224,0.103c-0.132,0.052-0.265,0.103-0.4,0.148c-0.281,0.094-0.566,0.173-0.856,0.238
			c-0.144,0.032-0.288,0.06-0.433,0.087c-0.051,0.01-0.292,0.043-0.339,0.053c-0.537,0.053-1.086,0.08-1.622,0.041
			c-0.012-0.001-0.268-0.035-0.276-0.032c-0.117-0.021-0.233-0.045-0.349-0.066c-0.266-0.048-0.501-0.074-0.721-0.177
			c-0.367-0.171-0.665-0.52-0.892-0.799c0.145-0.439-0.413-0.852-0.778-0.489c-0.046,0.046-0.08,0.096-0.119,0.143
			c-0.816,0.312-0.706,1.534-0.366,2.185c0.401,0.767,1.177,1.358,1.936,1.743c0.809,0.409,1.688,0.637,2.581,0.71
			c0.047,0.206,0.094,0.411,0.135,0.619c0.005,0.044,0.009,0.089,0.012,0.133c0.013,0.165,0.021,0.331,0.023,0.497
			c0.003,0.296-0.02,0.588-0.046,0.882c0,0.001,0,0.001-0.001,0.002c-0.017,0.069-0.025,0.14-0.039,0.21
			c-0.033,0.163-0.071,0.324-0.115,0.484c-0.044,0.16-0.092,0.318-0.146,0.475c-0.02,0.057-0.053,0.142-0.073,0.193
			c-0.126,0.274-0.262,0.544-0.422,0.801c-0.081,0.13-0.17,0.253-0.257,0.379c-0.036,0.043-0.072,0.086-0.108,0.127
			c-0.217,0.248-0.459,0.462-0.703,0.681c-0.064,0.045-0.127,0.09-0.192,0.133c-0.16,0.105-0.324,0.204-0.493,0.295
			c-0.063,0.034-0.127,0.066-0.191,0.098c-0.008,0.004-0.035,0.018-0.066,0.033c-0.004-0.006-0.391,0.164-0.388,0.169
			c-0.033,0.013-0.062,0.024-0.071,0.027c-0.337,0.125-0.684,0.224-1.036,0.296c-0.164,0.034-0.329,0.062-0.493,0.089
			c-0.021,0.004-0.104,0.015-0.159,0.023c-0.056,0.005-0.132,0.012-0.146,0.013c-0.786,0.062-1.292,0.023-1.919-0.128
			c-0.7-0.169-1.462-0.561-2.183-0.5c-0.527,0.044-0.885,0.47-0.765,1.004c0.163,0.724,0.83,1.243,1.439,1.617
			c0.591,0.363,1.304,0.613,1.977,0.779c1.418,0.351,2.893,0.349,4.3-0.054c2.851-0.815,5-3.386,5.573-6.258
			c0.228-1.142,0.296-2.435,0.044-3.614c1.256-0.445,2.423-1.141,3.425-2.015C187.758,95.31,189.852,92.867,188.673,91.292z"/>
		<path style="fill:#5E303B;" d="M251.403,67.075c-0.139-0.228-0.209-0.323-0.217-0.3c-0.006-0.024-0.011-0.048-0.016-0.072
			c-0.071-0.133-0.135-0.304-0.282-0.379c-0.232-0.117-0.451-0.012-0.656,0.108c-1.406,0.04-2.16,1.591-3.232,2.447
			c-0.832,0.665-2.12,1.201-3.152,1.27c-1.279,0.087-2.451-0.102-3.646-0.649c-0.638-0.292-1.214-0.644-1.778-1.058
			c-0.58-0.425-1.112-0.907-1.838-1.023c-0.209-0.033-0.363,0.053-0.442,0.251c-0.729,1.829,1.599,3.884,2.98,4.712
			c1.877,1.124,4.063,1.464,6.2,1.03c1.93-0.392,3.812-1.498,5.115-2.973C251.181,69.599,252.066,68.209,251.403,67.075z"/>
		<path style="fill:#422127;" d="M189.027,173.633c-0.31-0.128-0.627-0.229-0.936-0.357c-0.272-0.113-0.443-0.287-0.668-0.482
			c-0.561-0.487-1.182-0.785-1.836-1.125c-1.132-0.588-2.127-1.302-2.853-2.266c-0.479-0.637-0.819-1.334-1.07-2.068
			c0.011-0.042,0.023-0.077,0.034-0.122c0.045-0.191-0.049-0.379-0.223-0.461c-0.087-0.33-0.158-0.667-0.212-1.012
			c-0.087-0.554-0.122-1.204-0.123-1.796c-0.001-0.341,0.036-0.693,0.018-1.032c-0.009-0.167-0.046-0.383-0.065-0.552
			c-0.02-0.174-0.186-0.414-0.191-0.541c-0.018-0.46-0.605-0.757-0.947-0.392c-0.139,0.149-0.375,0.201-0.528,0.368
			c-0.137,0.15-0.308,0.369-0.41,0.537c-0.207,0.339-0.332,0.786-0.431,1.172c-0.222,0.859-0.292,1.746-0.223,2.629
			c0.002,0.03,0.01,0.06,0.013,0.09c-0.568,0.006-0.964-0.054-1.603-0.248c-1.252-0.381-2.511-1.242-3.302-2.333
			c-1.03-1.419-1.45-3.201-1.504-4.93c-0.063-2.022,0.486-3.984,0.51-5.989c0.012-1.051-1.309-1.26-1.849-0.501
			c-1.36,1.912-1.729,4.685-1.644,6.972c0.084,2.254,0.682,4.604,2.054,6.428c1.251,1.664,2.964,2.913,4.954,3.546
			c0.726,0.231,2.065,0.439,3.251,0.326c0.257,0.571,0.549,1.125,0.914,1.631c1.03,1.427,2.381,2.642,4.002,3.357
			c0.917,0.405,1.878,0.658,2.872,0.373c0.341-0.098,0.627-0.223,0.977-0.28c0.374-0.06,0.754-0.185,1.098-0.342
			C189.394,174.1,189.255,173.727,189.027,173.633z"/>
		<path style="fill:#422127;" d="M319.262,171.418c-0.118-1.093-0.369-2.093-0.808-3.1c-0.186-0.428-0.393-0.836-0.665-1.217
			c-0.152-0.214-0.34-0.462-0.535-0.649c-0.086-0.082-0.203-0.151-0.323-0.214c0.799-0.832,1.396-1.803,1.797-2.89
			c0.194-0.527,0.322-1.07,0.401-1.625c0.12-0.841,0.212-1.843-0.411-2.504c-0.013-0.023-0.019-0.05-0.033-0.073
			c-0.021-0.034-0.251-0.399-0.12-0.184c-0.151-0.249-0.34-0.459-0.608-0.583c-0.034-0.015-0.062-0.037-0.08-0.05
			c-0.043-0.055-0.085-0.11-0.132-0.16c-0.137-0.146-0.272-0.296-0.409-0.442c-0.16-0.171-0.497-0.045-0.48,0.199
			c0.011,0.162,0.024,0.325,0.006,0.485c-0.007,0.059-0.025,0.124-0.031,0.187c-0.108,0.134-0.282,0.484-0.289,0.525
			c-0.016,0.099-0.006,0.099,0.007,0.076c-0.009,0.023-0.02,0.051-0.035,0.093c-0.02,0.054-0.033,0.103-0.052,0.151
			c-0.319,0.537-0.352,1.158-0.397,1.805c-0.002,0.032-0.003,0.047-0.004,0.068c-0.004,0.014-0.007,0.025-0.012,0.051
			c-0.025,0.117-0.044,0.236-0.07,0.353c-0.052,0.234-0.116,0.466-0.19,0.694c-0.037,0.114-0.08,0.226-0.119,0.34
			c-0.009,0.025-0.012,0.035-0.017,0.051c-0.005,0.01-0.006,0.013-0.012,0.025c-0.103,0.218-0.201,0.438-0.31,0.653
			c-0.108,0.214-0.226,0.423-0.354,0.625c-0.064,0.101-0.13,0.2-0.198,0.297c-0.03,0.042-0.06,0.083-0.091,0.125
			c-0.006,0.007-0.002,0.002-0.012,0.014c-0.155,0.182-0.312,0.36-0.482,0.528c-0.084,0.083-0.171,0.164-0.259,0.242
			c-0.026,0.023-0.175,0.144-0.205,0.171c-0.348,0.262-0.718,0.504-1.114,0.686c-0.041,0.014-0.18,0.069-0.187,0.071
			c-0.109,0.036-0.219,0.065-0.332,0.09c-0.117,0.026-0.369,0.062-0.498,0.066c-0.098,0.003-0.196-0.014-0.293-0.012
			c-0.038,0.002-0.058,0.004-0.086,0.006c-0.095-0.168-0.505-0.146-0.628-0.047c-0.032,0.026-0.064,0.051-0.096,0.077
			c-0.134,0.108-0.195,0.356-0.136,0.516c0.096,0.261,0.184,0.608,0.38,0.812c0.19,0.198,0.432,0.35,0.681,0.461
			c0.632,0.283,1.383,0.274,2.048,0.117c0.31-0.073,0.611-0.174,0.904-0.295c0.005,0.029,0.008,0.059,0.013,0.088
			c0.07,0.252,0.229,0.526,0.357,0.76c0.176,0.319,0.36,0.632,0.515,0.962c0.037,0.079,0.053,0.109,0.125,0.309
			c0.056,0.156,0.107,0.314,0.153,0.473c0.055,0.191,0.103,0.384,0.144,0.578c-0.002-0.007,0.05,0.315,0.062,0.362
			c0.157,1.428-0.103,2.569-0.799,3.717c-0.666,1.099-1.562,1.989-2.774,2.625c-0.649,0.341-1.419,0.544-2.16,0.702
			c-0.901,0.193-1.959,0.191-2.749,0.701c-0.48,0.309-0.454,0.94,0,1.255c0.9,0.623,2.282,0.631,3.343,0.619
			c0.995-0.011,1.993-0.182,2.923-0.538c1.854-0.709,3.437-1.984,4.469-3.689C318.988,175.32,319.467,173.323,319.262,171.418z"/>
		<path style="fill:#422127;" d="M324.087,132.086c-0.026-0.114-0.253-0.69-0.151-0.434c0.042,0.098,0.035,0.076-0.019-0.068
			c-0.048-0.114-0.096-0.228-0.144-0.342c-0.128-0.22-0.314-0.407-0.514-0.573c-0.181-0.247-0.379-0.455-0.639-0.604
			c-0.074-0.076-0.147-0.151-0.234-0.217c-0.202-0.085-0.226-0.095-0.071-0.031c-0.046-0.047-0.095-0.089-0.148-0.128
			c-0.179-0.172-0.41-0.353-0.618-0.491c-0.203-0.134-0.463,0.087-0.402,0.309c0.064,0.229,0.138,0.435,0.177,0.669
			c0.009,0.056,0.023,0.344,0.021,0.095c0.001,0.121-0.005,0.235-0.002,0.355c-0.024,0.107-0.034,0.223-0.035,0.341
			c-0.014,0.06-0.019,0.128-0.027,0.19c-0.049,0.12-0.091,0.243-0.118,0.368c-0.028,0.131-0.098,0.374-0.057,0.504
			c0.012,0.038,0.023,0.038,0.032,0.025c-0.005,0.029-0.009,0.057-0.015,0.101c-0.058,0.429,0.054,0.893,0.055,1.329
			c0,0.201-0.007,0.401-0.023,0.601c-0.006,0.074-0.014,0.147-0.021,0.22c-0.002,0.014-0.003,0.023-0.006,0.042
			c-0.067,0.397-0.146,0.787-0.266,1.172c-0.049,0.156-0.105,0.309-0.163,0.461c-0.015,0.035-0.034,0.081-0.052,0.118
			c-0.039,0.08-0.077,0.16-0.118,0.238c-0.172,0.331-0.367,0.656-0.577,0.964c-0.11,0.162-0.228,0.32-0.345,0.477
			c-0.014,0.02-0.012,0.016-0.018,0.025c-0.008,0.008-0.005,0.005-0.019,0.022c-0.072,0.085-0.144,0.17-0.219,0.251
			c-0.224,0.242-0.469,0.422-0.719,0.605c-0.009-0.001-0.019-0.001-0.029-0.001c-0.024-0.048-0.05-0.095-0.035-0.153
			c0.018-0.263-0.333-0.384-0.507-0.21c-0.129,0.129-0.214,0.258-0.251,0.438c-0.015,0.072-0.021,0.15-0.02,0.223
			c0.003,0.058,0.009,0.116,0.018,0.174c0.002,0.026,0.005,0.039,0.008,0.052c-0.048,0.236,0.046,0.516,0.203,0.674
			c1.937,1.943,4.602-1.082,5.37-2.79c0.471-1.048,0.749-2.118,0.806-3.269C324.222,133.256,324.212,132.638,324.087,132.086z"/>
		<path style="fill:#422127;" d="M279.62,98.601c-0.07-0.143-0.153-0.277-0.272-0.396c-0.171-0.17-0.373-0.288-0.606-0.353
			c0.16,0.095,0.112,0.081-0.144-0.043c-0.178-0.055-0.377-0.078-0.56-0.028c-0.223,0.078-0.256,0.099-0.101,0.063
			c-0.072,0.003-0.142,0.017-0.209,0.044c-0.104,0.033-0.176,0.11-0.226,0.198c-0.205,0.107-0.404,0.238-0.596,0.412
			c0.328-0.296-0.105,0.015-0.196,0.07c-0.017,0.01-0.023,0.015-0.035,0.023c-0.011,0.003-0.015,0.004-0.029,0.008
			c-0.299,0.093-0.596,0.17-0.9,0.246c-0.037,0.006-0.058,0.01-0.08,0.014c-0.04,0.004-0.079,0.009-0.119,0.012
			c-0.133,0.012-0.266,0.024-0.4,0.03c-0.311,0.015-0.617-0.003-0.926-0.024c-0.074-0.012-0.147-0.025-0.22-0.04
			c-0.131-0.027-0.261-0.058-0.39-0.092c-0.264-0.072-0.526-0.16-0.781-0.26c-0.07-0.037-0.286-0.137-0.325-0.157
			c-0.137-0.074-0.27-0.153-0.401-0.237c-0.035-0.023-0.214-0.153-0.252-0.176c-0.096-0.08-0.192-0.161-0.283-0.247
			c-0.044-0.042-0.085-0.088-0.128-0.131c-0.051-0.427-0.248-0.814-0.657-1.115c-0.03-0.048-0.06-0.096-0.09-0.143
			c-0.065-0.101-0.156-0.188-0.259-0.257c-0.043-0.11-0.085-0.22-0.121-0.331c-0.392-1.203-0.219-2.259-0.45-3.565
			c-0.088-0.496-0.701-0.529-1.019-0.269c-0.969,0.795-1.197,2.19-1.121,3.384c0.045,0.711,0.191,1.416,0.419,2.091
			c-0.047,0.086-0.096,0.17-0.141,0.259c-0.291,0.582-0.473,0.851-0.943,1.295c-0.737,0.699-1.931,1.249-2.875,1.338
			c-1.44,0.136-2.876-0.173-4.21-0.697c-1.429-0.561-2.776-1.342-4.265-1.722c-0.58-0.148-1.035,0.471-0.759,0.987
			c0.876,1.64,2.507,2.895,4.174,3.684c1.838,0.87,3.78,1.36,5.815,1.066c1.704-0.246,3.31-1.036,4.574-2.203
			c0.236-0.217,0.504-0.513,0.766-0.852c1.41,1.21,3.256,1.904,5.134,1.857c1.652-0.041,3.891-0.631,4.419-2.412
			C279.962,99.499,279.874,98.987,279.62,98.601z"/>
		<g>
			<path style="fill:#422127;" d="M209.894,114.634c-0.037-0.275-0.041-0.268-0.035-0.201c-0.013-0.123-0.024-0.246-0.056-0.364
				c-0.063-0.23-0.186-0.471-0.186-0.618c0-0.325-0.269-0.575-0.586-0.586c-0.288-0.01-0.586,0.027-0.859,0.116
				c-0.289,0.094-0.551,0.243-0.773,0.453c-0.084,0.085-0.154,0.182-0.225,0.278c0.031-0.037-0.048,0.065-0.25,0.323
				c-0.466,0.796-0.432,1.778-0.502,2.667c-0.007,0.094-0.015,0.188-0.025,0.283c-0.024,0.209-0.02,0.185,0.01-0.071
				c0.039,0.084-0.08,0.384-0.104,0.474c-0.041,0.151-0.094,0.297-0.144,0.446c-0.024,0.052-0.049,0.104-0.075,0.155
				c-0.126,0.247-0.279,0.474-0.436,0.7c-0.054,0.066-0.156,0.199-0.189,0.236c-0.094,0.104-0.192,0.207-0.291,0.307
				c-0.1,0.1-0.203,0.197-0.309,0.291c-0.053,0.047-0.317,0.238-0.272,0.212c-0.224,0.156-0.446,0.314-0.68,0.456
				c-0.139,0.084-0.28,0.164-0.424,0.238c-0.037,0.019-0.221,0.102-0.29,0.135c-0.25,0.097-0.505,0.185-0.762,0.26
				c-0.267,0.078-0.537,0.14-0.812,0.183c-0.08,0.007-0.278,0.03-0.309,0.033c-0.158,0.015-0.317,0.034-0.475,0.035
				c-0.604,0.004-1.207-0.089-1.809-0.072c-0.443,0.013-0.715,0.48-0.499,0.87c0.577,1.044,1.847,1.534,2.972,1.683
				c1.17,0.156,2.36,0.025,3.466-0.393c2.341-0.884,4.329-2.933,4.743-5.465c0.129-0.789,0.22-1.632,0.223-2.435
				C209.932,115.054,209.922,114.842,209.894,114.634z"/>
			<path style="fill:#422127;" d="M207.083,113.825c0.027-0.041,0.062-0.074,0.091-0.112
				C207.161,113.728,207.134,113.761,207.083,113.825z"/>
		</g>
		<path style="fill:#D77F2E;" d="M118.373,278.789c-0.585-0.867-1.51-0.99-2.405-0.578c-0.454,0.209-0.643,0.629-0.649,1.068
			c-0.667,0.918-1.718,1.746-2.508,2.466c-1.087,0.991-2.231,1.913-3.438,2.756c-2.424,1.693-5.053,3.129-7.805,4.213
			c-2.778,1.094-5.683,1.873-8.637,2.306c-1.394,0.204-2.79,0.407-4.196,0.516c-1.043,0.081-2.065-0.024-2.97,0.262
			c0.149-0.154,0.314-0.292,0.503-0.394c0.136-0.073,0.033-0.246-0.096-0.229c-1.253,0.172-2.319,1.45-1.311,2.552
			c0.686,0.75,1.76,0.689,2.706,0.763c1.035,0.08,2.074,0.118,3.112,0.107c4.075-0.044,8.226-1.071,12.012-2.537
			c3.877-1.501,7.464-3.564,10.719-6.149c1.607-1.277,3.217-2.681,4.535-4.262C118.628,280.83,119.034,279.768,118.373,278.789z"/>
		<path style="fill:#D77F2E;" d="M151.006,316.266c-0.383-0.745-0.819-1.463-1.302-2.148c-0.508-0.72-1.049-1.439-1.683-2.054
			c-0.308-0.299-0.625-0.594-0.961-0.861c-0.197-0.156-0.401-0.289-0.616-0.419c-0.272-0.164-0.508-0.229-0.78-0.219
			c-0.303-0.12-0.577-0.006-0.767,0.203c-0.178-0.116-0.363-0.22-0.564-0.296c-0.727-0.273-1.216,0.512-1.124,1.125
			c0.083,0.554,0.393,1.077,0.611,1.59c0.199,0.467,0.39,0.925,0.531,1.415c0.302,1.044,0.456,2.117,0.518,3.194
			c0.066,1.151,0.051,2.31-0.017,3.46c-0.074,1.257-0.316,2.491-0.119,3.741c0.228,1.445,2.663,1.431,2.905,0
			c0.463-1.188,0.414-2.686,0.462-3.953c0.051-1.333,0.003-2.647-0.178-3.97c-0.05-0.369-0.118-0.729-0.196-1.085
			c0.325,0.517,0.631,1.046,0.902,1.593c0.387,0.783,0.741,1.535,1.373,2.159c0.671,0.664,1.637,0.123,1.725-0.714
			C151.826,318.039,151.45,317.127,151.006,316.266z"/>
		<path style="fill:#D77F2E;" d="M196.273,276.509c-0.184,0.099-0.332,0.248-0.512,0.353c-0.17,0.1-0.355,0.182-0.519,0.291
			c-0.15,0.1-0.291,0.21-0.442,0.308c-0.17,0.111-0.35,0.193-0.513,0.315c-0.364,0.27-0.723,0.563-1.044,0.882
			c-0.283,0.281-0.523,0.612-0.764,0.934c-0.002-0.012-0.003-0.025-0.005-0.037c-0.158-0.988-0.556-1.778-0.901-2.72
			c-0.283-0.772-1.454-0.684-1.473,0.199c-0.018,0.809-0.182,1.578-0.155,2.381c0.027,0.798,0.078,1.592,0.089,2.391
			c0.02,1.601,0.004,3.204-0.074,4.803c-0.156,3.223-0.425,6.429-0.761,9.638c-0.691,6.611-1.507,13.21-2.208,19.82
			c-1.402,13.228-2.627,26.475-3.672,39.737c-0.286,3.624-0.558,7.249-0.817,10.875c-0.13,1.811-0.294,3.625-0.379,5.44
			c-0.088,1.881,0.324,3.803,0.936,5.572c0.128,0.369,0.699,0.523,0.9,0.118c0.655-1.322,1.264-2.788,1.527-4.242
			c0.305-1.685,0.301-3.451,0.418-5.157c0.232-3.379,0.476-6.757,0.731-10.135c0.498-6.59,1.041-13.177,1.625-19.76
			c1.181-13.307,2.597-26.586,4.073-39.863c0.408-3.67,0.806-7.382,0.786-11.08c-0.009-1.576-0.08-3.158-0.231-4.728
			c0.274-0.352,0.54-0.71,0.799-1.068c0.395-0.544,0.827-1.047,1.197-1.586c0.185-0.271,0.337-0.564,0.492-0.851
			c0.143-0.265,0.283-0.52,0.343-0.808c0.135-0.262,0.266-0.529,0.382-0.797c0.138-0.321,0.324-0.617,0.46-0.936
			C196.641,276.612,196.474,276.401,196.273,276.509z"/>
		<path style="fill:#D77F2E;" d="M343.796,371.17c-0.18-1.641-0.419-3.278-0.625-4.916c-0.391-3.114-0.773-6.229-1.146-9.346
			c-0.765-6.397-1.491-12.798-2.179-19.204c-1.375-12.812-2.564-25.642-3.673-38.48c-0.313-3.622-0.566-7.251-0.93-10.868
			c-0.174-1.731-0.343-3.462-0.554-5.189c-0.221-1.81-0.321-3.711-0.877-5.45c-0.27-0.843-1.708-1.012-1.883,0
			c-0.299,1.727-0.308,3.541-0.233,5.351c-0.156-0.154-0.306-0.315-0.448-0.483c-0.035-0.042-0.069-0.086-0.105-0.128
			c-0.009-0.011-0.002-0.001-0.005-0.005c-0.073-0.094-0.145-0.187-0.22-0.279c-0.002-0.003-0.007-0.009-0.01-0.013
			c-0.014-0.018-0.027-0.036-0.034-0.046c-0.039-0.054-0.078-0.109-0.115-0.164c-0.109-0.159-0.213-0.311-0.336-0.463
			c-0.023-0.029-0.047-0.057-0.071-0.086c-0.039-0.107-0.14-0.226-0.194-0.323c-0.251-0.45-0.829-0.617-1.29-0.423
			c-0.497,0.21-0.694,0.705-0.598,1.219c0.046,0.247,0.088,0.501,0.148,0.745c0.078,0.32,0.246,0.637,0.393,0.932
			c0.261,0.523,0.639,0.997,1.029,1.43c0.388,0.431,0.868,0.829,1.353,1.141c0.208,0.134,0.446,0.269,0.697,0.381
			c0.017,0.29,0.034,0.579,0.048,0.865c0.153,3.133,0.396,6.259,0.633,9.387c0.492,6.505,1.047,13.004,1.642,19.5
			c1.183,12.911,2.523,25.807,4.02,38.685c0.41,3.527,0.832,7.053,1.266,10.577c0.222,1.803,0.447,3.606,0.675,5.408
			c0.112,0.886,0.204,1.755,0.533,2.588c0.34,0.863,0.9,1.577,1.381,2.365c0.254,0.416,0.889,0.333,1.028-0.134
			C343.593,374.124,343.984,372.884,343.796,371.17z"/>
		<path style="fill:#D77F2E;" d="M375.245,312.276c-0.19-1.229-0.607-2.415-1.034-3.579c-0.847-2.309-1.607-4.745-2.793-6.906
			c-0.284-0.517-0.645-1.019-1.242-1.191c-0.166-0.048-0.335-0.044-0.498-0.016c-0.293-0.295-0.823-0.35-1.178-0.161
			c-1.266,0.674-1.885,2.362-2.333,3.638c-0.494,1.407-0.838,2.853-1.027,4.331c-0.175,1.372-0.233,2.756-0.155,4.138
			c0.088,1.557,0.259,3.265,1.341,4.47c0.672,0.749,1.833,0.26,2.085-0.566l0.012,0.012c0.365-1.269,0.046-2.627-0.045-3.917
			c-0.094-1.336-0.065-2.679,0.083-4.009c0.137-1.229,0.36-2.444,0.693-3.636c0.086-0.309,0.187-0.622,0.286-0.938
			c0.068,0.287,0.141,0.573,0.228,0.852c0.359,1.149,0.745,2.284,1.143,3.42c0.42,1.196,0.832,2.399,1.329,3.566
			c0.232,0.544,0.49,1.095,0.825,1.582c0.19,0.276,0.4,0.401,0.635,0.61c0.216,0.191,0.323,0.456,0.624,0.539
			c0.364,0.101,0.742-0.091,0.887-0.436c0.097-0.231,0.044-0.471,0.077-0.712C375.242,312.98,375.307,312.683,375.245,312.276z"/>
		<path style="fill:#D77F2E;" d="M284.925,220.654c-0.417-1.172-2.041-1.879-2.989-0.789c-4.318,4.962-10.752,7.045-17.131,7.689
			c-7.05,0.711-14.569,0.328-21.399-1.614c-2.037-0.579-4.022-1.319-5.907-2.288c-0.926-0.476-1.843-0.991-2.703-1.58
			c-0.8-0.547-1.369-1.322-2.116-1.909c-0.839-0.659-2.633-0.376-2.463,1.02c0.244,2.001,1.951,3.212,3.552,4.22
			c1.741,1.096,3.603,1.982,5.516,2.733c3.93,1.542,8.108,2.33,12.295,2.767c7.489,0.781,15.582,0.736,22.745-1.847
			c3.329-1.2,6.417-2.971,8.952-5.422c0.701-0.04,1.402-0.435,1.655-1.203C285.127,221.834,285.135,221.245,284.925,220.654z"/>
		<path style="fill:#D77F2E;" d="M314.616,367.66c-1.214,1.44-2.688,2.543-3.954,3.923c-1.337,1.456-2.769,2.807-4.258,4.106
			c-3.022,2.638-6.24,5.04-9.617,7.205c-6.767,4.336-14.128,7.698-21.851,9.929c-7.982,2.306-16.787,3.76-24.843,0.977
			c-3.962-1.369-7.459-3.828-10.827-6.265c-3.584-2.592-7.094-5.286-10.525-8.078c-3.776-3.073-7.471-6.253-11.069-9.532
			c-1.8-1.64-3.596-3.286-5.375-4.949c-1.775-1.659-3.499-3.459-5.566-4.746c-0.744-0.463-1.592,0.446-1.176,1.176
			c1.101,1.931,2.695,3.519,4.217,5.127c1.567,1.656,3.189,3.268,4.846,4.834c3.372,3.187,6.835,6.274,10.4,9.243
			c3.497,2.914,7.078,5.729,10.73,8.446c3.541,2.634,7.136,5.325,11.2,7.106c8.324,3.649,17.644,2.891,26.257,0.726
			c8.206-2.062,16.13-5.372,23.384-9.726c4.118-2.472,8.03-5.296,11.686-8.411c1.703-1.451,3.459-2.94,4.881-4.676
			c1.425-1.741,2.117-3.903,2.101-6.152C315.254,367.622,314.833,367.403,314.616,367.66z"/>
		<path style="fill:#D77F2E;" d="M319.793,336.905c-0.729-0.007-1.357,0.219-2.093,0.13c-0.475-0.057-0.716,0.634-0.387,0.934
			c0.037,0.033,0.064,0.072,0.098,0.107c-1.289,0.86-2.516,1.843-3.764,2.73c-1.761,1.251-3.534,2.486-5.33,3.685
			c-3.584,2.393-7.266,4.648-11.108,6.605c-7.551,3.848-15.907,6.494-24.448,6.418c-2.468-0.022-4.921-0.279-7.334-0.802
			c-1.147-0.248-2.276-0.58-3.422-0.832c-1.063-0.234-2.316-0.707-3.317-0.158c-0.341,0.187-0.555,0.671-0.427,1.048
			c0.338,0.991,1.042,1.196,1.92,1.664c1.082,0.576,2.264,0.954,3.452,1.253c2.173,0.547,4.405,0.893,6.638,1.071
			c4.445,0.353,8.937-0.077,13.286-1.027c8.916-1.948,17.154-6.178,24.778-11.089c2.139-1.378,4.241-2.813,6.323-4.275
			c2.109-1.481,4.42-2.89,6.288-4.673C321.987,338.7,321.18,336.917,319.793,336.905z"/>
		<path style="fill:#2A1214;" d="M272.113,485.523c-0.149-3.896-0.323-8-1.372-11.775c-0.181-0.651-0.785-1.085-1.449-1.103
			l-0.11-0.003c-1.154-0.032-1.696,1.224-1.362,2.113c0.131,3.668,0.65,7.323,0.758,10.997c0.114,3.885-0.008,7.775-0.312,11.648
			c-0.161,2.054,2.95,2.349,3.503,0.474c0.158-0.537,0.217-1.079,0.142-1.596C272.176,492.699,272.25,489.112,272.113,485.523z"/>
		<path style="fill:#2A1214;" d="M267.444,495.415c-1.112-1.449-2.647-2.373-3.582-3.999c-0.93-1.617-1.397-3.454-1.839-5.252
			c-0.493-2.006-0.934-4.027-1.453-6.026c-0.28-1.079-0.572-2.159-0.907-3.223c-0.153-0.487-0.277-1.065-0.581-1.487
			c-0.349-0.484-0.787-0.6-1.33-0.814c-0.078-0.031-0.188,0.005-0.243,0.064c-0.421,0.45-0.766,0.774-0.835,1.402
			c-0.066,0.6,0.098,1.232,0.186,1.824c0.164,1.107,0.38,2.211,0.603,3.307c0.46,2.265,0.953,4.533,1.491,6.781
			c0.482,2.012,1.131,4.049,2.276,5.792c1.025,1.561,2.576,3.459,4.477,3.892C266.867,497.941,268.324,496.562,267.444,495.415z"/>
		<path style="fill:#2A1214;" d="M207.979,468.178c-1.428-0.459-2.239,0.841-3.04,1.768c-3.233,3.743-6.615,7.485-10.639,10.399
			c-2.176,1.575-4.535,2.956-7.052,3.909c-1.254,0.475-2.534,0.859-3.815,1.256c-0.656,0.203-1.367,0.368-1.993,0.652
			c-0.553,0.251-1.017,0.656-1.556,0.939c-0.223,0.117-0.247,0.511,0,0.621c0.935,0.416,1.654,0.814,2.71,0.857
			c1.245,0.05,2.538-0.172,3.736-0.495c2.321-0.626,4.559-1.637,6.642-2.831c4.327-2.481,8.05-5.892,11.432-9.527
			c0.812-0.873,1.607-1.762,2.394-2.658c0.753-0.858,2.243-2.034,2.26-3.253C209.069,469.091,208.673,468.401,207.979,468.178z"/>
		<path style="fill:#2A1214;" d="M339.25,487.074c-1.233-0.572-2.271-1.171-3.324-2.053c-0.287-0.241-0.712,0.056-0.528,0.407
			c0.2,0.38,0.367,0.754,0.52,1.128c-4.376-0.612-8.456-1.904-12.294-4.348c-2.184-1.39-4.164-3.067-5.91-4.979
			c-0.865-0.947-1.659-1.957-2.433-2.979c-0.807-1.064-1.54-2.089-2.951-2.226c-0.164-0.016-0.357,0.105-0.432,0.248
			c-1.274,2.445,1.748,5.555,3.257,7.252c1.953,2.195,4.236,4.11,6.703,5.703c4.753,3.071,10.785,5.261,16.51,5.098
			C339.974,490.28,340.909,487.844,339.25,487.074z"/>
		<g>
			<path style="fill:#2A1214;" d="M240.923,127.563c-1.189-1.272-3.459-1.614-5.113-1.769c-1.346-0.127-2.764,0.038-4.07,0.368
				c-1.301,0.329-2.592,0.887-3.682,1.674c-0.639,0.461-1.275,0.949-1.818,1.522c-0.5,0.527-0.805,1.063-1.077,1.73
				c-0.271,0.665-0.223,1.333-0.118,2.037c0.164,1.094,1.576,2.139,2.671,2.033c1.177-0.114,2.008-0.556,2.874-1.339
				c0.086-0.078,0.171-0.157,0.258-0.233c0.115-0.079,0.329-0.232,0.407-0.281c0.222-0.139,0.45-0.268,0.683-0.387
				c0.08-0.041,0.162-0.079,0.244-0.118c0.418-0.161,0.837-0.309,1.273-0.416c0.202-0.05,0.405-0.087,0.609-0.127
				c0.057-0.006,0.114-0.012,0.17-0.016c0.461-0.032,0.917-0.019,1.377,0.009c-0.061-0.014-0.117-0.026-0.194-0.044
				c0.093,0.022,0.19,0.032,0.284,0.049c0.01,0.001,0.02,0.001,0.029,0.001c0.164,0.011,0.347,0.07,0.271,0.068
				c0.163,0.036,0.327,0.069,0.488,0.115c0.079,0.023,0.218,0.05,0.356,0.086c0.016,0.007,0.023,0.011,0.046,0.021
				c0.112,0.05,0.216,0.091,0.322,0.132c-0.044-0.025-0.178-0.084-0.292-0.131c0.123,0.035,0.234,0.078,0.295,0.133
				c0.477,0.187,0.906,0.286,1.453,0.317c1.254,0.072,2.446-0.859,2.91-1.957C242.086,129.844,241.809,128.511,240.923,127.563z"/>
			<path style="fill:#2A1214;" d="M235.702,132.256c-0.03-0.002-0.06-0.002-0.09-0.004c0.23,0.052,0.351,0.072,0.391,0.073
				c-0.092-0.021-0.183-0.047-0.275-0.065C235.719,132.258,235.71,132.257,235.702,132.256z"/>
			<path style="fill:#2A1214;" d="M237.234,132.69c-0.003-0.003-0.012-0.006-0.016-0.009c-0.001-0.001-0.003-0.001-0.004-0.001
				C237.221,132.683,237.232,132.688,237.234,132.69z"/>
		</g>
		<path style="fill:#2A1214;" d="M286.482,128.916c-0.671-1.544-2.236-2.877-3.701-3.637c-1.69-0.877-3.502-1.247-5.388-1.4
			c-1.672-0.135-3.409,0.054-5.034,0.45c-0.93,0.227-1.894,0.542-2.699,1.071c-1.427,0.938-2.405,2.684-1.495,4.335
			c1.165,2.116,3.735,1.363,5.599,0.997c0.112-0.022,0.224-0.04,0.336-0.06c0.286-0.019,0.571-0.05,0.859-0.06
			c0.618-0.022,1.266,0.108,1.877,0.08c0.109,0.02,0.219,0.04,0.327,0.063c0.302,0.064,0.603,0.138,0.9,0.224
			c0.242,0.07,0.478,0.154,0.716,0.237c0.048,0.02,0.095,0.044,0.142,0.066c0.244,0.117,0.483,0.242,0.713,0.382
			c0.049,0.03,0.151,0.105,0.23,0.162c0.083,0.086,0.202,0.216,0.284,0.303c0.073,0.122,0.139,0.243,0.196,0.374
			c0.331,0.761,1.363,1.424,2.124,1.634c0.851,0.234,1.984,0.128,2.739-0.358c0.759-0.489,1.427-1.218,1.634-2.125
			C287.066,130.662,286.884,129.842,286.482,128.916z"/>
		<path style="fill:#2A1214;" d="M241.887,145.869c-0.27-1.026-0.634-2.191-1.175-3.092c-0.676-1.125-1.73-1.91-2.987-2.266
			c-0.28-0.079-0.561-0.117-0.841-0.138c-0.099-0.029-0.194-0.072-0.293-0.095c-1.073-0.249-2.379-0.18-3.335,0.436
			c-0.292,0.225-0.584,0.451-0.876,0.677c-0.536,0.54-0.908,1.177-1.113,1.91c-0.467,1.172-0.654,2.438-0.749,3.691
			c-0.093,1.226,0.07,2.497,0.341,3.69c0.309,1.357,0.894,2.831,1.973,3.755c0.693,0.593,1.254,0.985,2.151,1.236
			c0.858,0.24,1.771,0.244,2.633,0.016c1.013-0.268,1.948-0.864,2.675-1.612C242.426,151.881,242.631,148.691,241.887,145.869z"/>
		<path style="fill:#FFFFFF;" d="M235.513,142.471c-0.009-0.023-0.018-0.047-0.028-0.07c-0.143-0.509-0.4-0.951-0.773-1.327
			c-0.375-0.373-0.817-0.63-1.327-0.773c-0.533-0.143-1.066-0.143-1.598,0c-0.509,0.143-0.951,0.4-1.327,0.773
			c-0.372,0.375-0.63,0.817-0.773,1.327c-0.143,0.533-0.143,1.066,0,1.598c0.143,0.509,0.401,0.951,0.773,1.327
			c0.375,0.373,0.817,0.63,1.327,0.773c0.024,0.008,0.048,0.017,0.071,0.026c0.526,0.142,1.053,0.142,1.58,0
			c0.503-0.141,0.94-0.396,1.311-0.764c0.368-0.371,0.623-0.808,0.764-1.311C235.655,143.524,235.655,142.997,235.513,142.471z"/>
		<path style="fill:#2A1214;" d="M281.326,144.646c-0.27-1.026-0.634-2.191-1.175-3.092c-0.676-1.125-1.73-1.91-2.987-2.266
			c-0.28-0.079-0.561-0.117-0.841-0.138c-0.099-0.029-0.194-0.072-0.293-0.095c-1.073-0.249-2.379-0.18-3.335,0.436
			c-0.292,0.226-0.584,0.451-0.876,0.677c-0.536,0.54-0.908,1.177-1.113,1.91c-0.467,1.172-0.654,2.438-0.749,3.691
			c-0.093,1.226,0.07,2.497,0.341,3.69c0.309,1.357,0.894,2.831,1.973,3.755c0.693,0.594,1.254,0.985,2.151,1.236
			c0.858,0.24,1.771,0.244,2.633,0.016c1.013-0.268,1.948-0.864,2.675-1.612C281.866,150.658,282.07,147.468,281.326,144.646z"/>
		<path style="fill:#FFFFFF;" d="M274.953,141.248c-0.009-0.023-0.018-0.047-0.028-0.07c-0.143-0.509-0.401-0.951-0.773-1.327
			c-0.375-0.373-0.817-0.63-1.327-0.773c-0.533-0.143-1.066-0.143-1.598,0c-0.509,0.143-0.952,0.4-1.327,0.773
			c-0.372,0.375-0.63,0.817-0.773,1.327c-0.143,0.533-0.143,1.066,0,1.598c0.143,0.509,0.401,0.951,0.773,1.327
			c0.375,0.372,0.817,0.63,1.327,0.773c0.024,0.008,0.048,0.017,0.071,0.026c0.527,0.142,1.053,0.142,1.58,0
			c0.503-0.141,0.94-0.396,1.311-0.764c0.368-0.371,0.623-0.808,0.764-1.311C275.094,142.301,275.094,141.774,274.953,141.248z"/>
		<path style="fill:#8C4732;" d="M264.745,158.834c-0.89-0.817-2.419-0.964-3.29,0c-0.166,0.183-0.335,0.362-0.516,0.531
			c-0.097,0.091-0.414,0.343-0.38,0.326c-0.377,0.276-0.756,0.543-1.169,0.765c-0.109,0.058-0.219,0.114-0.33,0.167
			c-0.026,0.012-0.132,0.055-0.197,0.081c-0.05,0.017-0.098,0.033-0.113,0.039c-0.117,0.04-0.235,0.078-0.353,0.112
			c-0.237,0.069-0.477,0.127-0.719,0.173c-0.035,0.007-0.217,0.031-0.255,0.038c-0.19,0.019-0.379,0.04-0.567,0.073
			c0.456-0.065-0.211,0.017-0.365,0.024c-0.251,0.012-0.504,0.011-0.755-0.002c-0.122-0.006-0.244-0.017-0.365-0.028
			c-0.021-0.003-0.04-0.005-0.063-0.009c-0.25-0.046-0.498-0.098-0.743-0.165c-0.961-0.26-1.788-0.661-2.722-1.16
			c-0.999-0.533-1.908,0.513-1.47,1.47c1.178,2.568,4.177,3.962,6.879,4.186c1.433,0.119,2.918-0.333,4.219-0.891
			c1.271-0.545,2.389-1.379,3.274-2.443C265.522,161.189,265.728,159.737,264.745,158.834z"/>
		<g>
			<path style="fill:#FFFFFF;" d="M253.879,181.654C253.715,181.725,253.678,181.743,253.879,181.654L253.879,181.654z"/>
			<path style="fill:#FFFFFF;" d="M265.99,176.723c-0.415-0.553-0.842-1.015-1.457-1.345c-0.419-0.225-0.862-0.403-1.301-0.584
				c-0.703-0.289-1.43-0.38-2.182-0.475c-1.266-0.16-2.547-0.048-3.799,0.18c-2.58,0.471-5.655,2.073-6.34,4.799
				c-0.204,0.812,0.077,1.656,0.739,2.167c0.704,0.544,1.508,0.51,2.29,0.161c-0.032,0.014-0.038,0.017-0.062,0.027
				c0.053-0.023,0.113-0.049,0.183-0.079c0.195-0.082,0.337-0.156,0.514-0.258c0.188-0.107,0.385-0.197,0.575-0.3
				c0.408-0.221,0.781-0.498,1.195-0.71c0.071-0.036,0.143-0.07,0.215-0.104c0.199-0.067,0.395-0.145,0.597-0.205
				c0.213-0.063,0.428-0.118,0.645-0.164c0.263-0.056,1.035-0.078,0.163-0.046c0.446-0.016,0.88-0.073,1.327-0.04
				c0.023,0.002,0.075,0.007,0.129,0.013c0.002,0.001,0.006,0.001,0.008,0.001c0.216,0.04,0.43,0.088,0.643,0.145
				c0.403,0.108,0.787,0.259,1.174,0.41c0.081,0.04,0.165,0.078,0.243,0.12c0.394,0.206,0.788,0.459,1.229,0.539
				c1.176,0.213,2.283-0.054,3.043-1.038C266.407,179.105,266.676,177.638,265.99,176.723z"/>
		</g>
		<path style="fill:#D77F2E;" d="M426.304,289.065c0.001-0.01,0.003-0.021,0.004-0.031c-6.149,0.936-12.077-1.106-17.584-3.679
			c-2.682-1.253-5.471-2.504-7.96-4.116c-1.128-0.731-2.169-1.624-2.938-2.736c-0.771-1.116-1.363-2.333-2.318-3.305
			c-0.593-0.604-1.752-0.347-1.945,0.514c-0.697,3.105,1.78,6.036,4.068,7.825c2.736,2.14,6.063,3.6,9.189,5.075
			c6.351,2.996,13.397,5.508,20.504,4.11C429.731,292.247,428.664,288.457,426.304,289.065z"/>
		<path style="fill:#D77F2E;" d="M128.063,363.169c-1.228-0.497-2.713,0.691-3.849,1.124c-1.206,0.459-2.442,0.868-3.689,1.199
			c-1.161,0.309-2.35,0.542-3.547,0.652c-0.625,0.058-1.25,0.14-1.876,0.18c-0.247,0.015-0.508,0.03-0.754,0.014
			c-0.164-0.011-0.335-0.054-0.323-0.018c-0.087-0.25-0.413-0.375-0.614-0.162c-0.897,0.956,0.362,2.06,1.282,2.272
			c1.606,0.37,3.26,0.469,4.905,0.378c1.641-0.09,3.288-0.324,4.859-0.813c0.864-0.269,1.706-0.618,2.534-0.982
			c0.907-0.4,1.951-0.839,2.162-1.924C129.328,364.185,128.898,363.507,128.063,363.169z"/>
		<path style="fill:#D77F2E;" d="M398.157,350.863c-0.685-0.175-1.421-0.188-2.125-0.246c-0.032-0.003-0.051-0.004-0.071-0.005
			c-0.008-0.002-0.01-0.003-0.021-0.005c-0.137-0.027-0.275-0.046-0.412-0.072c-0.274-0.054-0.546-0.118-0.815-0.192
			c-0.296-0.082-0.589-0.176-0.878-0.281c-0.095-0.035-0.189-0.072-0.283-0.109c-0.03-0.016-0.277-0.123-0.292-0.13
			c-0.534-0.253-1.034-0.557-1.535-0.869c-0.992-0.619-1.637-1.102-2.518-2.04c-0.763-0.813-1.349-1.963-2.371-2.437
			c-0.253-0.117-0.581-0.082-0.727,0.19c-0.339,0.632-0.332,1.287-0.144,1.988c0.185,0.692,0.517,1.362,0.881,1.976
			c0.735,1.24,1.705,2.317,2.839,3.201c1.145,0.894,2.519,1.538,3.9,1.972c1.371,0.431,3.169,0.838,4.572,0.352
			c0.717-0.249,1.254-0.86,1.254-1.646C399.411,351.771,398.882,351.048,398.157,350.863z"/>
		<g>
			<path style="fill:#D77F2E;" d="M400.81,347.961c0.027-0.149,0.02-0.297-0.058-0.43c-0.007-0.012-0.018-0.022-0.026-0.034
				c-0.001-0.001-0.003-0.002-0.004-0.004c0-0.001,0-0.001-0.001-0.002c-0.021-0.031-0.041-0.065-0.067-0.087
				c0.022,0.029,0.044,0.057,0.066,0.086c-0.006-0.018-0.013-0.038-0.017-0.051c-0.017-0.054-0.04-0.107-0.066-0.158
				c-0.049-0.096-0.12-0.166-0.206-0.228c-0.087-0.062-0.183-0.04-0.256,0.017c-0.01-0.013-0.019-0.026-0.029-0.038
				c-0.067-0.083-0.14-0.155-0.216-0.229c-0.038-0.036-0.074-0.074-0.113-0.11c-0.088-0.081-0.186-0.133-0.292-0.174
				c-0.056-0.048-0.112-0.096-0.169-0.144c-0.097-0.083-0.194-0.137-0.323-0.155c-0.12-0.016-0.254-0.001-0.359,0.067
				c-0.081,0.053-0.149,0.121-0.202,0.202c-0.073,0.113-0.1,0.305-0.057,0.433c0.03,0.09,0.061,0.18,0.091,0.271
				c-0.004,0.077-0.001,0.155,0.023,0.236c0.014,0.048,0.036,0.095,0.055,0.142c0.066,0.158,0.123,0.322,0.208,0.471
				c0.084,0.148,0.196,0.278,0.302,0.411c0.033,0.042,0.066,0.083,0.099,0.124c0.08,0.101,0.183,0.164,0.299,0.213
				c0.043,0.018,0.079,0.03,0.117,0.042c0.021,0.008,0.035,0.027,0.057,0.033c0.057,0.015,0.114-0.003,0.171,0
				c0.002,0,0.003,0,0.005,0c-0.001,0-0.001,0-0.002,0c0.079,0.003,0.158,0.021,0.237,0c0.187-0.075,0.324-0.135,0.47-0.277
				c0.16-0.154,0.27-0.395,0.259-0.621C400.809,347.965,400.81,347.963,400.81,347.961z"/>
			<polygon style="fill:#D77F2E;" points="400.726,347.497 400.729,347.5 400.721,347.489 400.721,347.491 			"/>
		</g>
		<path style="fill:#D77F2E;" d="M346.693,458.404c-0.608-0.168-1.276-0.423-1.914-0.423c-0.603,0-1.215,0.338-1.771,0.542
			c-1.346,0.493-2.7,0.963-4.062,1.411c-2.643,0.87-5.314,1.656-8.005,2.363c-5.378,1.413-10.836,2.512-16.332,3.353
			c-10.926,1.674-22.004,2.282-33.049,2.407c-11.284,0.128-22.566-0.278-33.839-0.74c-11.863-0.487-23.732-0.9-35.59-1.493
			c-6.462-0.323-12.938-0.82-19.28-2.158c-6.321-1.333-12.243-3.785-18.276-6.025c-1.167-0.433-1.627,1.226-0.783,1.856
			c9.283,6.928,21.885,8.584,33.13,9.419c12.073,0.897,24.211,1.169,36.305,1.696c22.733,0.991,45.646,2.061,68.284-0.893
			c6.276-0.819,12.514-1.912,18.662-3.425c2.993-0.736,5.962-1.567,8.899-2.501c1.509-0.48,3.009-0.986,4.499-1.521
			c0.683-0.245,1.542-0.418,2.149-0.813c0.66-0.429,1.057-1.2,1.461-1.851C347.464,459.157,347.192,458.542,346.693,458.404z"/>
	</g>
</g>
</svg>
