<?xml version="1.0" encoding="utf-8"?>
<!-- Generator: Adobe Illustrator 27.5.0, SVG Export Plug-In . SVG Version: 6.00 Build 0)  -->
<svg version="1.1" xmlns="http://www.w3.org/2000/svg" xmlns:xlink="http://www.w3.org/1999/xlink" x="0px" y="0px"
	 viewBox="0 0 500 500" style="enable-background:new 0 0 500 500;" xml:space="preserve">
<g id="BACKGROUND">
	<rect style="fill:#FFFFFF;" width="500" height="500"/>
</g>
<g id="OBJECT">
	<g>
		<path style="fill:#FFE9E1;" d="M78.429,479.86c0,0,301.607,12.568,374.286,0c5.359-0.927,4.988-8.274-37.143-6.86
			s-160.184,4.151-217.714,1.075c-57.53-3.075-121.143-1.29-129.714,0.675C59.571,476.714,70.422,479.833,78.429,479.86z"/>
		<ellipse style="opacity:0.82;fill:#FFE9E1;" cx="243.565" cy="211.91" rx="158.317" ry="150.968"/>
		<ellipse style="opacity:0.81;fill:#FCDBD2;" cx="169.665" cy="108.137" rx="90.48" ry="86.28"/>
		<ellipse style="opacity:0.81;fill:#FCDBD2;" cx="306.456" cy="268.512" rx="53.565" ry="51.078"/>
		<g>
			<polygon style="fill:#FFE9E1;" points="112.5,305.072 110.366,332.819 109.22,347.76 41.57,337.649 46.243,315.811 
				50.478,296.006 			"/>
			<path style="fill:#F7D6CB;" d="M110.366,332.819l-1.146,14.941l-67.65-10.11l4.673-21.839
				c5.651,6.145,15.626,13.368,32.398,16.064C94.313,334.392,104.299,333.92,110.366,332.819z"/>
			<path style="fill:none;stroke:#F7D6CB;stroke-miterlimit:10;" d="M72.063,301.546l1.221-9.029
				c0.781-5.774,6.18-9.76,11.929-8.806h0c5.846,0.971,9.679,6.651,8.391,12.435l-2.042,9.171"/>
			<path style="fill:#F7D6CB;" d="M73.929,302.509c0,1.11-0.835,2.009-1.866,2.009c-1.03,0-1.866-0.9-1.866-2.009
				c0-1.11,0.835-2.009,1.866-2.009C73.094,300.5,73.929,301.399,73.929,302.509z"/>
			<path style="fill:#F7D6CB;" d="M93.427,305.558c0,1.11-0.835,2.009-1.866,2.009c-1.03,0-1.866-0.9-1.866-2.009
				s0.835-2.009,1.866-2.009C92.592,303.549,93.427,304.448,93.427,305.558z"/>
		</g>
		<g>
			<g>
				
					<ellipse transform="matrix(0.1199 -0.9928 0.9928 0.1199 -127.5484 581.6461)" style="fill:#E2B7AC;" cx="264.272" cy="362.76" rx="21.178" ry="21.178"/>
				
					<ellipse transform="matrix(0.9864 -0.1645 0.1645 0.9864 -56.0294 47.7925)" style="fill:#F7D6CB;" cx="260.502" cy="362.138" rx="21.178" ry="21.178"/>
				<path style="fill:#FFE9E1;" d="M275.386,364.593c-1.421,8.615-9.557,14.448-18.172,13.027s-14.448-9.557-13.027-18.172
					c1.421-8.615,9.557-14.447,18.172-13.027C270.975,347.842,276.807,355.978,275.386,364.593z"/>
				
					<text transform="matrix(0.9867 0.1627 -0.1627 0.9867 250.2025 369.6071)" style="fill:#E2B7AC; font-family:'AbrilFatface-Regular'; font-size:28.4895px;">$</text>
			</g>
			<g>
				
					<ellipse transform="matrix(0.9265 -0.3764 0.3764 0.9265 -116.9921 111.4481)" style="fill:#E2B7AC;" cx="226.718" cy="355.126" rx="27.321" ry="27.321"/>
				
					<ellipse transform="matrix(0.7071 -0.7071 0.7071 0.7071 -186.1515 260.8426)" style="fill:#F7D6CB;" cx="221.789" cy="355.126" rx="27.321" ry="27.321"/>
				<circle style="fill:#FFE9E1;" cx="220.854" cy="355.126" r="20.396"/>
				
					<text transform="matrix(1 0 0 1 210.2853 366.7605)" style="fill:#E2B7AC; font-family:'AbrilFatface-Regular'; font-size:36.7538px;">$</text>
			</g>
		</g>
		<g>
			<path style="fill:#E2B7AC;" d="M437.02,303.533l-47.499-20.673c-6.077-2.645-8.859-9.715-6.214-15.792l13.39-30.766
				c2.645-6.077,9.715-8.859,15.792-6.214l47.499,20.673c6.077,2.645,8.859,9.715,6.214,15.792l-13.39,30.766
				C450.166,303.396,443.096,306.178,437.02,303.533z"/>
			<path style="fill:none;stroke:#F7D6CB;stroke-miterlimit:10;" d="M403.247,234.467l16.793,23.58
				c3.092,4.342,8.425,6.491,13.664,5.505l27.535-5.179"/>
			<path style="fill:none;stroke:#F7D6CB;stroke-miterlimit:10;" d="M445.735,297.181l-16.793-23.58
				c-3.092-4.342-8.425-6.491-13.664-5.505l-27.535,5.179"/>
			<line style="fill:none;stroke:#F7D6CB;stroke-miterlimit:10;" x1="409.484" y1="232.826" x2="461.256" y2="255.358"/>
			
				<rect x="421.272" y="237.815" transform="matrix(0.9169 0.3991 -0.3991 0.9169 141.8369 -147.0734)" style="fill:#FFE9E1;" width="5.743" height="58.592"/>
			
				<rect x="387.691" y="262.787" transform="matrix(0.9169 0.3991 -0.3991 0.9169 141.064 -147.8329)" style="fill:#FFE9E1;" width="75.802" height="4.199"/>
			<path style="fill:#F7D6CB;" d="M416.842,244.387l-6.703-2.917c-0.669-0.291-0.976-1.07-0.684-1.739l1.264-2.904
				c0.291-0.669,1.07-0.976,1.739-0.684l6.703,2.917c0.669,0.291,0.976,1.07,0.684,1.739l-1.264,2.904
				C418.29,244.372,417.511,244.678,416.842,244.387z"/>
		</g>
		<path style="fill:#FFE9E1;" d="M388.342,324.042c0,3.517-2.851,6.367-6.367,6.367s-6.367-2.851-6.367-6.367
			s2.851-6.367,6.367-6.367S388.342,320.526,388.342,324.042z"/>
		<path style="fill:#FFE9E1;" d="M78.431,164.54c0,3.517-2.851,6.367-6.367,6.367s-6.367-2.851-6.367-6.367s2.851-6.367,6.367-6.367
			S78.431,161.024,78.431,164.54z"/>
		<path style="fill:#FFE9E1;" d="M381.975,103.048c0,3.517-2.851,6.367-6.367,6.367s-6.367-2.851-6.367-6.367
			s2.851-6.367,6.367-6.367S381.975,99.532,381.975,103.048z"/>
		<path style="fill:#FFE9E1;" d="M403.247,119.842c0,2.248-1.822,4.07-4.07,4.07c-2.248,0-4.07-1.822-4.07-4.07
			c0-2.248,1.822-4.07,4.07-4.07C401.424,115.772,403.247,117.595,403.247,119.842z"/>
		<path style="fill:#FFE9E1;" d="M188.698,377.833c0,2.334-1.892,4.226-4.226,4.226c-2.334,0-4.226-1.892-4.226-4.226
			c0-2.334,1.892-4.226,4.226-4.226C186.806,373.607,188.698,375.499,188.698,377.833z"/>
		<circle style="fill:#FFE9E1;" cx="299.82" cy="380.729" r="7.122"/>
		<path style="fill:none;stroke:#F7D6CB;stroke-miterlimit:10;" d="M67.574,240.027c0,3.605-2.923,6.528-6.528,6.528
			c-3.605,0-6.528-2.923-6.528-6.528c0-3.605,2.923-6.528,6.528-6.528C64.651,233.499,67.574,236.422,67.574,240.027z"/>
		
			<line style="fill:none;stroke:#F7D6CB;stroke-linecap:round;stroke-linejoin:round;stroke-miterlimit:10;" x1="70.214" y1="249.43" x2="77.571" y2="249.43"/>
		
			<line style="fill:none;stroke:#F7D6CB;stroke-linecap:round;stroke-linejoin:round;stroke-miterlimit:10;" x1="73.893" y1="245.751" x2="73.893" y2="253.109"/>
		<g>
			<path style="fill:#E2B7AC;" d="M261.273,36.328c-9.991-9.031-25.514-9.031-35.505,0c-5.149,4.655-9.274,12.001-8.72,23.56
				c1.385,28.896,26.472,53.214,26.472,53.214s25.087-24.318,26.472-53.214C270.546,48.329,266.422,40.983,261.273,36.328z"/>
			<circle style="fill:#FFE9E1;" cx="243.473" cy="56.616" r="15.044"/>
		</g>
	</g>
	<g>
		<g>
			<path style="fill:#FF9067;" d="M316,169.22v25.49c0,0-0.18,0.06-0.51,0.17c-2.45,0.82-13.28,4.27-21.2,4.58
				c-1.67,0.07-4.19-1.12-7.18-3.08c-11.23-7.39-29.11-25.86-33.88-30.87c-4.63-0.81-7.9-2.33-7.9-2.33l2.88-18.68
				c0,0-2.35-0.86-3.5-3.24c-1.14-2.38-0.26-4.05,2.21-3c2.46,1.06,7.22-0.44,9.06,2.65c1.36,2.25,4.22,8.33,5.66,11.42l36.7,24.23
				l10.41-4.32l7.22-3.01L316,169.22z"/>
			<path style="fill:#FF9067;" d="M240.995,139.211c0,0-2.311-0.792-3.962,1.651c-1.651,2.443,0.264,4.887,2.443,6.009
				c2.179,1.123,10.698,5.085,11.952,2.509c1.255-2.575-2.287-5.192-3.704-5.877c0,0-3.39-1.255-3.673-3.302L240.995,139.211z"/>
			<path style="fill:#FF9067;" d="M237.571,145.143c0,0-1.793,2.917-0.671,5.954c1.123,3.038,6.799,4.371,9.242,5.163
				c2.443,0.792,5.088-1.465,5.55-3.182c0.462-1.717-1.693-3.15-1.693-3.15S239.288,146.133,237.571,145.143z"/>
			<path style="fill:#FF9067;" d="M237.56,152.218c0,0-0.659,4.361,0.86,6.21s7.396,2.113,8.717,1.717
				c1.321-0.396,2.575-1.849,2.575-2.707c0-0.859-1.189-1.335-1.189-1.335s-0.924,0.41-3.764-0.382
				C241.919,154.927,237.56,152.218,237.56,152.218z"/>
			<path style="fill:#DD704E;" d="M315.97,169.23l-0.48,25.65c-2.45,0.82-13.28,4.27-21.2,4.58c-1.67,0.07-4.19-1.12-7.18-3.08
				c1.93-0.8,5.4-2.03,8.18-1.81c4.07,0.32,4.6,2.36,8.78,0.64c3.56-1.46,4.48-18.08,4.68-22.97L315.97,169.23z"/>
			<path style="fill:#00878F;" d="M221.712,136.801c0,0-0.858,2.829-0.858,4.281l24.125,1.189l-7.488-1.99L221.712,136.801z"/>
			<path style="fill:#FF9067;" d="M239.96,159.426c0,0,0.374,2.369,2.686,3.624c2.311,1.255,5.613,0.396,6.736-0.396
				s1.255-1.465,0.792-2.35c-0.462-0.885-1.995-1.196-1.995-1.196S245.001,161.348,239.96,159.426z"/>
			<path style="fill:#DD704E;" d="M244.424,138.546c0,0,3.091,3.508,7.333,3.874c4.242,0.366,6.314,8.723,6.456,11.009
				c0.143,2.286-0.929,4.191-0.929,4.191s3.643,1.737,3.214,3.094c-0.429,1.357-4.571-1.286-5.964-0.714
				c-1.393,0.571-3.727,4.279-5.453,4.533c-1.726,0.253-3.154-5.773-3.404-9.724s1.499-5.737,0.767-8.023
				C245.714,144.5,241.777,139.949,244.424,138.546z"/>
			<path style="fill:#8EBCB8;" d="M245.304,142.42c0,0-17.893-4.045-26.761-5.982l2.641-4.424c0,0,13.396,3.095,23.24,6.533
				C244.424,138.546,245.074,141.891,245.304,142.42z"/>
			<path style="fill:#A8D3D1;" d="M244.751,141.588c0,0-22.775-7.396-27.067-8.056c0,0,6.604-7.726,7.792-8.915
				c0,0,12.877,4.196,21.065,13.324C246.542,137.941,244.41,137.398,244.751,141.588z"/>
			<path style="fill:none;stroke:#B55039;stroke-linecap:round;stroke-miterlimit:10;" d="M238.609,145.638
				c0,0,5.446,2.469,8.508,3.255c3.062,0.786,5.312-1.25,5.097-2.178"/>
			<path style="fill:none;stroke:#B55039;stroke-linecap:round;stroke-miterlimit:10;" d="M246.446,142.893l5.606,1.715l0.176,0.054
				c0,0-0.264,4.981,2.307,7.41"/>
			<path style="fill:none;stroke:#B55039;stroke-linecap:round;stroke-miterlimit:10;" d="M238.609,152.607
				c0,0,4.641,1.545,7.069,2.201c2.428,0.656,4.983-0.494,5.393-1.88c0.41-1.385-0.323-2.923-1.536-3.393"/>
			<path style="fill:none;stroke:#B55039;stroke-linecap:round;stroke-miterlimit:10;" d="M241.643,159.5c0,0,4.071,1,5.321,0.679
				c1.25-0.322,3.273-2.003,3.036-3.322c-0.237-1.318-1.25-1.859-1.25-1.859"/>
			<path style="fill:none;stroke:#B55039;stroke-linecap:round;stroke-miterlimit:10;" d="M248.847,159.313
				c0,0,1.76-0.092,1.368,2.084c-0.393,2.175-3.768,2.289-3.768,2.289"/>
			<path style="fill:none;stroke:#B55039;stroke-linecap:round;stroke-miterlimit:10;" d="M297.571,179.065
				c0,0-1.714,7.636-1.286,11.5"/>
			<path style="fill:none;stroke:#003755;stroke-linecap:round;stroke-miterlimit:10;" d="M244.051,138.417
				c0,0-3.931-2.845-6.634-4.202"/>
		</g>
		<path style="fill:#6D0A0A;" d="M337.494,380.454l34.583,65.022l23.912-16.622c0,0-19.468-43.511-23.912-54.266
			c-4.444-10.755-10.586-24.181-10.586-24.181s5.91-91.706,5.91-100.936h-26.949C331.516,284.53,335.896,371.682,337.494,380.454z"
			/>
		<polygon style="fill:#6D0A0A;" points="313.503,240.536 313.503,249.471 367.4,249.471 367.4,240.24 		"/>
		<path style="fill:#FF9067;" d="M346.64,100.54l3.81,15.87l-24.77,6.04l-0.52-2.66l-1.7-8.61c0,0-5.64,1.15-10.34,0.98h-0.05
			c-0.01,0-0.01,0-0.02,0c-2.88-0.11-5.4-0.73-6.02-2.41c-1.67-4.45-2.46-15.56-2.46-15.56l-1.44-2.88
			c-0.71-1.41-0.19-3.1,1.15-3.93c0.58-0.36,1.21-0.83,1.87-1.45c2.39-2.22,1.91-6.66,2.86-13.33c0.95-6.67,3.34-11.12,3.34-11.12
			s8.41-4.92,19.52-4.12c11.12,0.79,20.8,7.3,20.8,17.78S346.64,100.54,346.64,100.54z"/>
		<path style="fill:#DD704E;" d="M339.1,106.29c-4.95,6.12-10.89,12.85-12.94,13.5c-0.23,0.07-0.58,0.07-1,0l-1.7-8.61
			c0,0-5.64,1.15-10.34,0.98l-0.26-1.48c0,0,12.33-2.1,16.87-6.4c4.54-4.3,5.21-7.53,5.21-7.53s4.12-0.86,6.82,0
			C344.46,97.61,344.04,100.16,339.1,106.29z"/>
		<path style="fill:#FEDC97;" d="M353.424,114.708c0,0-2.307-6.062-3.691-6.549c-1.384-0.487-25.004,7.144-25.957,7.859
			s-1.191,9.764-1.191,9.764L353.424,114.708z"/>
		<path style="fill:#FFBB4C;" d="M369.74,238.96c-0.13,2.5-2.2,4.46-4.71,4.46h-49.39c-2.61,0-4.72-2.11-4.72-4.72
			c0-1.54,0.03-3.35,0.08-5.4c0.54-21.87,3.55-69.65,3.43-78.49c-0.16-11.27,8.16-29.03,8.16-29.03l30.82-11.07h0.01
			c0,0,12.44,7.06,16.71,20.76C374.23,148.59,370.74,220.26,369.74,238.96z"/>
		<path style="fill:none;stroke:#B55039;stroke-linecap:round;stroke-linejoin:round;stroke-miterlimit:10;" d="M333.302,100.848
			c0,0-0.476,5.168-7.144,8.74"/>
		<path style="fill:#FEDC97;" d="M324.33,98.94c-0.87,5.95-4.03,11.56-11.26,13.22c-0.01,0-0.01,0-0.02,0
			c-2.47-0.09-4.68-0.56-5.64-1.76c-0.17-0.2-0.29-0.41-0.38-0.65c-1.3-3.45-2.06-10.91-2.34-14.08c-0.08-0.92-0.12-1.48-0.12-1.48
			l-1.44-2.88c-0.4-0.79-0.41-1.68-0.1-2.44c0.24-0.6,0.67-1.13,1.25-1.49s1.21-0.83,1.87-1.45c0,0,5.48,3.1,11.36,4.53
			c0.99,0.24,1.86,0.47,2.63,0.73C323.92,92.39,325.05,93.98,324.33,98.94z"/>
		<g>
			<path style="fill:#690505;" d="M279.224,231.421h-61.73c-6.627,0-12-5.372-12-12V178.33c0-6.627,5.372-12,12-12h61.73
				c6.627,0,12,5.373,12,12v41.092C291.223,226.049,285.851,231.421,279.224,231.421z"/>
			<path style="fill:none;stroke:#222221;stroke-miterlimit:10;" d="M211.457,175.042l28.057,16.874
				c5.166,3.107,11.667,2.928,16.654-0.458l26.217-17.798"/>
			<path style="fill:none;stroke:#222221;stroke-miterlimit:10;" d="M283.823,220.9l-28.058-16.874
				c-5.166-3.107-11.667-2.928-16.654,0.458l-26.217,17.798"/>
			<line style="fill:none;stroke:#222221;stroke-miterlimit:10;" x1="217.185" y1="170.524" x2="281.042" y2="170.524"/>
			<rect x="244.613" y="166.33" style="fill:#934242;" width="6.495" height="66.266"/>
			<rect x="205.494" y="194.127" style="fill:#934242;" width="85.73" height="4.749"/>
			<path style="fill:#892424;" d="M230.206,179.193h-8.614c-0.73,0-1.322-0.592-1.322-1.321v-3.929c0-0.73,0.592-1.321,1.322-1.321
				h8.614c0.73,0,1.321,0.592,1.321,1.321v3.929C231.528,178.601,230.936,179.193,230.206,179.193z"/>
		</g>
		<path style="fill:#680304;" d="M338.484,96.669l8.453,3.102c0,0,7.836-9.668,9.157-22.435c1.321-12.767-9.157-18.138-9.157-18.138
			c-9.509-9.245-28.263-7.308-36.099-4.314c-7.836,2.994-10.037,11.27-8.025,14.088c2.012,2.817,4.415-1.233,4.415-1.233
			s-0.704,4.226,2.201,5.283c2.906,1.057,3.868-3.874,3.868-3.874s0.27,4.138,2.048,5.195c1.778,1.057,3.042-3.17,3.042-3.17
			c1.122,3.874,6.858,4.955,6.858,4.955s0.508,4.17,2.496,5.837c1.988,1.667,3.119,1.965,3.119,1.965l-0.655,6.43
			c0,0,0.417,0.655,2.143-1.191c1.727-1.846,2.024-4.048,2.024-4.048s0.672-4.031,3.989-4.048s3.537,3.259,3.4,4.862
			c-0.137,1.603-1.03,5.263-1.048,5.906C340.697,92.482,339.896,95.782,338.484,96.669z"/>
		<path style="fill:none;stroke:#B55039;stroke-linecap:round;stroke-miterlimit:10;" d="M334.135,98.396l0.357-1.369
			c0,0,1.786,1.726,3.992-0.357c2.206-2.084,1.545-6.072,2.795-9.168c1.25-3.096,0-6.847-2.917-6.43
			c-2.917,0.417-3.155,2.858-3.155,2.858"/>
		<path style="fill:none;stroke:#B55039;stroke-linecap:round;stroke-miterlimit:10;" d="M340.267,83.75
			c0,0,0.119-1.012-1.369-1.012c-1.488,0-2.917,2.322-2.798,4.465c0.119,2.143,0.641,2.381-0.007,3.394
			c-0.648,1.012-1.303,0.655-1.124,2.5c0.179,1.846,1.667,1.965,2.143,1.488c0.476-0.476-0.298-2.024-0.298-2.024"/>
		<path style="fill:none;stroke:#B55039;stroke-linecap:round;stroke-miterlimit:10;" d="M337.35,85.119
			c0,0,1.965,1.726,1.726,3.661"/>
		<path style="fill:none;stroke:#222221;stroke-miterlimit:10;" d="M335.787,97.652c0,0-3.803,8.168-15.7,10.793"/>
		<path style="fill:none;stroke:#222221;stroke-miterlimit:10;" d="M318.388,83.299c0,0-0.595-1.603-2.5-1.841
			c-1.905-0.238-2.59,1.607-2.59,1.607"/>
		<path style="fill:#FF9067;" d="M360.93,158.33c-1.27,13.02-3.21,37.01-4.48,45.27c-0.52,3.39-0.74,7.1-1.39,10.43
			c-0.93,4.76-2.74,8.77-7.59,10.08c-0.24,0.07-0.52,0.14-0.84,0.22c-1.04,0.28-2.47,0.66-4.22,1.12
			c-13.31,3.46-44.68,11.41-54.82,12.81c-0.33,0.2-0.68,0.41-1.05,0.64c-0.01,0.01-0.01,0.01-0.01,0.01
			c-2.71,1.61-6.46,3.75-9.81,5.29c-2.12,0.99-4.08,1.73-5.5,1.94c-5.51,0.84-8.42-1.99-8.42-1.99s0,0-2.9-0.61
			c-2.91-0.61-4.44-3.36-4.44-3.36c-2.37-0.31-3.98-3.45-2.07-4.14c1.92-0.68,3.06,0.54,6.05,0.54c0.59,0,1.2-0.08,1.81-0.2
			c2.32-0.48,4.54-1.63,4.81-1.78l-4.84,0.7l-0.18,0.03c0,0-5.81-0.74-7.19-1.2c-1.37-0.46-2.45-2.9,0-3.67
			c1.08-0.34,2.72-0.33,4.47-0.31c2.2,0.02,4.58,0.07,6.24-0.53c2.98-1.07,7.8-3.75,7.22-4.05c-0.41-0.22-2.41,0.02-4.58,0.23
			c-0.91,0.09-1.86,0.18-2.72,0.22c-2.9,0.16-4.2-3.06-2.14-3.44c1.97-0.36,5.61-1.84,9-2.3c0.16-0.03,0.33-0.05,0.49-0.07
			c3.52-0.38,13.52,2,13.83,2.14l44.07-19.25c0,0-0.08-37.47,0-38.74c0.08-1.27-2.62-23.18,0-29.53l31.2,2.94
			C360.93,137.77,362.2,145.31,360.93,158.33z"/>
		<path style="fill:#FEDC97;" d="M361.49,175.86l-33.75,1.16c0,0-0.42-3.55-0.81-8.56c-0.41-5.26-0.78-12.14-0.6-18.23
			c0.16-5.15,0.81-9.42,1.5-12.61c1.09-5.06,4.83-9.17,9.78-10.66c3.05-0.92,5.91-1.32,8.51-1.27c8.11,0.13,13.81,4.6,15.37,11.31
			C362.96,143.32,361.49,175.86,361.49,175.86z"/>
		<path style="fill:#F4CE89;" d="M361.49,175.86l-33.75,1.16c0,0-0.42-3.55-0.81-8.56c2.56,0.45,5.63,0.68,8.86,0.24
			c8.35-1.13,8.54,0.45,14.66-0.98c6.12-1.43,0.47-8.65,2.97-15.65c2.51-7,1.87-14.5-5.85-23.93c-0.8-0.99-1.27-1.8-1.45-2.45
			c8.11,0.13,13.81,4.6,15.37,11.31C362.96,143.32,361.49,175.86,361.49,175.86z"/>
		<path style="fill:#DE7B53;" d="M367.4,249.47c0,0-0.11,1.93-0.33,6.08c-0.28,5.19-0.76,13.87-1.49,26.6
			c-0.02,0.49-0.05,0.99-0.08,1.5c-0.1,1.78-0.25,3.65-0.45,5.58c-2,19.64-8.47,45.88-10.77,54.83c-0.51,2.01-0.82,3.15-0.82,3.15
			s0.05,2.88,0.1,7.17c0.11,9.29,0.23,25.22-0.1,32.92c-0.34,7.78-0.21,35.47-0.1,51.78c0.05,7.26,0.1,12.26,0.1,12.26h-33.25
			c0,0-0.2-4.17-0.5-10.8c-1.16-24.85-3.9-84.3-3.9-88.93c0-5.87-2.44-39.11-2.31-56.22c0.1-12.63,0.05-31.63,0.02-40.72
			c-0.01-3.22-0.02-5.2-0.02-5.2H367.4z"/>
		<path style="fill:#FF9067;" d="M345.91,477.41c-3.85,0.55-31.54-0.1-34.29,0c-2.75,0.09-11.73,0.91-14.02-0.55
			c-2.29-1.47,1.93-4.04,2.48-5.23c0.54-1.19,2.47-1.92,5.4-2.84c2.94-0.92,22.37-9.81,22.37-9.81l-0.18-4.78l-0.1-2.86h21.18
			c0,0,0.14,1.48,0.35,3.64c0.4,4.16,1.06,10.83,1.48,14.45C351.22,474.93,349.76,476.86,345.91,477.41z"/>
		<path style="fill:#007095;" d="M351.96,478.32c-0.83,0.64-52.71,2.57-58.3,0.83c-1.63-0.51-1.36-2.69,0.14-5.4
			c3.58-6.56,14.27-16.2,22.04-12.57c2.59,1.21,3.85,6.14,5.23,10.18c1.37,4.03,28.05,1.19,30.25,3.02
			c0.78,0.65,1.19,1.25,1.35,1.78C352.99,477.15,352.49,477.91,351.96,478.32z"/>
		<path style="fill:#DD704E;" d="M375.607,443.021c0,0,4.981,4.043,4.981,7.343c0,3.3-2.491,12.222-2.491,12.222l10.557,5.378
			c0,0,12.222-8.932,16.744-12.472c4.522-3.539,3.422-8.062,1.711-10.017c-1.711-1.956-12.422-13.228-13.3-15.108L375.607,443.021z"
			/>
		<path style="fill:#015D75;" d="M377.777,454.642c0,0,9.533,5.867,11.855,7.211c2.322,1.344,19.8-14.422,21.267-13.689
			c1.467,0.733,2.322,2.2,1.344,3.789c-0.978,1.589-17.6,16.011-23.466,20.655c-6.461,5.115-23.281,7.25-24.567,3.993
			c-0.947-2.398,1.833-8.786,5.011-13.675C372.399,458.038,374.355,454.276,377.777,454.642z"/>
		<line style="fill:#FFFFFF;stroke:#222221;stroke-miterlimit:10;" x1="349.544" y1="347.473" x2="344.166" y2="348.921"/>
		<path style="fill:none;stroke:#510307;stroke-miterlimit:10;" d="M346.071,59.929c0,0-7.143,0.214-10,1.286"/>
		<path style="fill:#DD704E;" d="M253.85,230.46c1.08-0.34,2.72-0.33,4.47-0.31c1.09,0.66,2.01,1.37,2.36,2.03
			c0.44,0.83,0.51,1.92,0.54,3.12l-0.18,0.03c0,0-5.81-0.74-7.19-1.2C252.48,233.67,251.4,231.23,253.85,230.46z"/>
		<path style="fill:#DD704E;" d="M276.72,244.2c-2.12,0.99-4.08,1.73-5.5,1.94c-5.51,0.84-8.42-1.99-8.42-1.99s0,0-2.9-0.61
			c-2.91-0.61-4.44-3.36-4.44-3.36c-2.37-0.31-3.98-3.45-2.07-4.14c1.92-0.68,3.06,0.54,6.05,0.54c0.59,0,1.2-0.08,1.81-0.2
			c0.04,1.46,0.19,3.01,0.94,4.38C263.48,243.07,272.3,244.06,276.72,244.2z"/>
		<path style="fill:#C96647;" d="M353.86,265.29c1.14,8,0.28,6.85,2.28,12.28c1.31,3.55,6.16,4.41,9.44,4.58
			c-0.02,0.49-0.05,0.99-0.08,1.5c-0.1,1.78-0.25,3.65-0.45,5.58c-4.72,0.6-12.39,0.15-13.19,2.37c-1.15,3.17-1.43,7.97-5,16.54
			c-3.58,8.57-4.43,32.86-2.69,36c1.25,2.27,6.93,0.67,10.11-0.08c-0.51,2.01-0.82,3.15-0.82,3.15s0.05,2.88,0.1,7.17
			c-3.66,2.2-10.43,3.86-10.85,7.19c-0.57,4.57-1.71,13.43,0.29,24.57c2,11.15-2.29,38.86,1.17,47.68c1.84,4.7,5.85,5.52,9.19,5.26
			c0.05,7.26,0.1,12.26,0.1,12.26h-33.25c0,0-0.2-4.17-0.5-10.8c3.96-1.28,11.54-4.53,13-11.11c2-9-2.85-43.57-2.85-48.72
			c0-5.14,1.43-21.14-0.29-25.58c-1.71-4.45,0.29-8.42,0.57-12.13c0.29-3.71-1.43-6,0.57-24.57s7.72-49.14,2.86-55.72
			c-4.1-5.54-16.33-7.55-20.05-8.04c-0.01-3.22-0.02-5.2-0.02-5.2h53.9c0,0-0.11,1.93-0.33,6.08
			C361.41,256.97,353.09,259.97,353.86,265.29z"/>
		<path style="fill:none;stroke:#B55039;stroke-linecap:round;stroke-miterlimit:10;" d="M332.143,205.286
			c0,0,5.143,4.286,6.428,6.857"/>
		<path style="fill:none;stroke:#B55039;stroke-linecap:round;stroke-miterlimit:10;" d="M257.357,240.5c0,0,3.786,0.643,7,0
			c3.214-0.643,5.429-2.571,5.429-2.571"/>
		<path style="fill:none;stroke:#B55039;stroke-linecap:round;stroke-miterlimit:10;" d="M264.357,244.143
			c0,0,2.643,0.143,4.214-0.5c1.572-0.643,2.786-2.286,2.786-2.286"/>
		
			<line style="fill:none;stroke:#6D0A0A;stroke-linecap:round;stroke-linejoin:round;stroke-miterlimit:10;" x1="321.107" y1="442.607" x2="350.036" y2="443.036"/>
		<path style="fill:none;stroke:#6D0A0A;stroke-linecap:round;stroke-linejoin:round;stroke-miterlimit:10;" d="M335.005,250
			c0,0-0.112,6.5,6.495,9.071"/>
		<path style="fill:none;stroke:#6D0A0A;stroke-linecap:round;stroke-linejoin:round;stroke-miterlimit:10;" d="M345,250
			c0,0-1.071,17.643-2.571,31.357c-1.5,13.714-6.429,58.5-6.429,58.5s1.714,2.572,0.857,3.857c-0.857,1.286,0.214,3.759,0.214,3.759
			s0.643,2.34-0.214,2.933c-0.857,0.594,2.357,77.522,0.214,92.201"/>
		<path style="fill:none;stroke:#E98C00;stroke-linecap:round;stroke-miterlimit:10;" d="M329.643,174c0,0,23.214-0.5,28.714-0.571"
			/>
		<path style="fill:none;stroke:#6D0A0A;stroke-linecap:round;stroke-linejoin:round;stroke-miterlimit:10;" d="M366.607,253.286
			h-3.821c0,0-1.948,17.25-1.296,22.821c0.653,5.572,3.26,7.393,3.26,7.393"/>
		
			<line style="fill:none;stroke:#E98C00;stroke-linecap:round;stroke-miterlimit:10;" x1="326.288" y1="124.452" x2="350.45" y2="116.41"/>
		<path style="fill:#EFA943;" d="M369.74,238.96c-0.13,2.5-2.2,4.46-4.71,4.46h-49.39c-2.61,0-4.72-2.11-4.72-4.72
			c0-1.54,0.03-3.35,0.08-5.4c2.47,1.69,6.03,3.33,10.57,3.45c9.43,0.25,19.76-3.63,28.88-3.55c9.12,0.09,11.02-11.5,13.93-28.99
			c2.91-17.5,2.05-74.6-8.24-81.76c-3.95-2.75-4.07-5.45-2.73-7.74h0.01c0,0,12.44,7.06,16.71,20.76
			C374.23,148.59,370.74,220.26,369.74,238.96z"/>
		<polygon style="fill:#DD704E;" points="329.696,180 358.676,182.859 359.309,175.935 329.643,177.02 		"/>
		<path style="fill:#DD704E;" d="M355.06,214.03c-0.93,4.76-2.74,8.77-7.59,10.08c-1.03,0.28-2.78,0.74-5.06,1.34
			c0.25-2,1.2-7.02,4.52-8.81C350.24,214.86,353.74,214.22,355.06,214.03z"/>
		<path style="fill:#DD704E;" d="M346.63,224.33c-1.04,0.28-2.47,0.66-4.22,1.12c-13.31,3.46-44.68,11.41-54.82,12.81
			c-0.33,0.2-0.68,0.41-1.05,0.64c0.25-0.36,0.39-0.69,0.39-0.97c0-1.79-1.18-8.22-0.54-9.29c0.65-1.07,2.9,6.22,3.86,6.75
			c0.96,0.54,51.75-11.78,56.79-14.89C349.23,219.15,348.36,221.37,346.63,224.33z"/>
		<path style="fill:#DD704E;" d="M271.34,220.28c-0.16,2.5-2.16,4.32-4.14,5.52c-0.91,0.09-1.86,0.18-2.72,0.22
			c-2.9,0.16-4.2-3.06-2.14-3.44C264.31,222.22,267.95,220.74,271.34,220.28z"/>
		<path style="fill:none;stroke:#222221;stroke-linecap:round;stroke-linejoin:round;stroke-miterlimit:10;" d="M323.836,93.512
			c0,0,7.411-3.845,10.537-8.393"/>
		<path style="fill:#F4CE89;" d="M348.857,109.143c0,0-4.002,2.429-4.644,4.857s7.858,0.714,7.572,0
			C351.5,113.286,349.5,108.143,348.857,109.143z"/>
		<path style="fill:#F4CE89;" d="M304.69,95.67c-0.08-0.92-0.12-1.48-0.12-1.48l-1.44-2.88c-0.4-0.79-0.41-1.68-0.1-2.44
			c1.17,0.48,6.66,2.78,7.04,3.49C310.47,93.08,306.69,96.04,304.69,95.67z"/>
		<path style="fill:#F4CE89;" d="M324.33,98.94c-0.87,5.95-4.03,11.56-11.26,13.22c-0.01,0-0.01,0-0.02,0
			c-2.47-0.09-4.68-0.56-5.64-1.76c2.38,0.36,6.71,0.12,10.09-5.18c4.03-6.31,2.43-11.94,2.64-14.03
			C323.92,92.39,325.05,93.98,324.33,98.94z"/>
		<path style="fill:#015D75;" d="M351.96,478.32c-0.83,0.64-52.71,2.57-58.3,0.83c-1.63-0.51-1.36-2.69,0.14-5.4
			c2.47,1.16,6.94,2.45,13.2,1.11c10-2.15,2.86-11.99,5.43-12.14s4.43,5.28,5.43,8.99c1,3.72,9.58,5.47,17.15,5.59
			c6,0.1,14.43-0.78,17.66-1.14C352.99,477.15,352.49,477.91,351.96,478.32z"/>
		<path style="fill:#DD704E;" d="M346.61,456c0,0,0.85,1.71,0,5.14c-0.86,3.43-4.93,5.15-4.93,5.15s-0.11-8.04-2.14-8.9
			c-1.44-0.6-8.07-2.26-11.87-3.19l-0.1-2.86h21.18c0,0,0.14,1.48,0.35,3.64L346.61,456z"/>
		<path style="fill:none;stroke:#003755;stroke-linecap:round;stroke-miterlimit:10;" d="M311.571,461.679
			c0,0,4.541,1.313,6.289,10.031"/>
		<path style="fill:none;stroke:#003755;stroke-linecap:round;stroke-miterlimit:10;" d="M294.643,476.786
			c0,0,4.756,0.576,23.217,0.663c18.461,0.087,32.176-0.663,32.176-0.663"/>
		<path style="fill:none;stroke:#003755;stroke-linecap:round;stroke-miterlimit:10;" d="M374.464,457.393
			c0,0,8.25,3.107,11.143,6.428"/>
		<path style="fill:none;stroke:#003755;stroke-linecap:round;stroke-miterlimit:10;" d="M369.321,474.75
			c0,0,8.893,0.068,17.464-4.627c8.571-4.695,23.357-19.266,23.357-19.266"/>
	</g>
	<g>
		<polygon style="fill:#6D0A0A;" points="128.379,437.805 125.587,454.552 151.087,455.205 153.009,440.821 		"/>
		<path style="fill:#A8D3D1;" d="M186.56,477.93c-6.87,3.43-27.79,1.14-36.78,1.63s-27.3,0-28.44-2.29
			c-1.15-2.29,1.8-14.38,1.8-17.32c0-1.65,0.35-3.9,0.67-5.58c0.08-0.41,0.27-0.77,0.54-1.06c0.5-0.55,1.28-0.81,2.06-0.63
			c2.2,0.53,5.88,1.22,10.13,1.22c5.04,0,11.04-1.32,13.88-2.03c0.98-0.24,1.99,0.23,2.44,1.13c0.53,1.04,1.22,2.46,1.82,3.84
			c1.15,2.62,12.43,3.27,20.76,6.54c7.15,2.8,7.69,6.09,8.94,7.68c0.2,0.27,0.43,0.49,0.71,0.65
			C187.05,472.86,186.56,477.93,186.56,477.93z"/>
		<path style="fill:#8EBCB8;" d="M186.56,477.93c-6.87,3.43-27.79,1.14-36.78,1.63s-27.3,0-28.44-2.29
			c-1.15-2.29,1.8-14.38,1.8-17.32c0-1.65,0.35-3.9,0.67-5.58c0.08-0.41,0.27-0.77,0.54-1.06c2.36,0.95,7.36,2.61,13.33,2.55
			c8.34-0.09,4.71,3.82-1.93,6c-6.64,2.18-7.68,7.64-4.75,9.14s12.25-1.96,23.93,1.64c11.68,3.61,27.4-0.23,29.45-1.58
			c0.2,0.27,0.43,0.49,0.71,0.65C187.05,472.86,186.56,477.93,186.56,477.93z"/>
		<path style="fill:#FF9067;" d="M176.79,91.31l-1.44,2.88c0,0-0.64,9.05-2.01,14.09c-0.14,0.54-0.29,1.04-0.45,1.47
			c-1.66,4.44-16.43,1.43-16.43,1.43l-1.28,6.48l-0.94,4.79l-24.77-6.04l3.81-15.87c0,0-6.03-14.92-6.03-25.4s9.68-16.99,20.8-17.78
			c11.11-0.8,19.53,4.12,19.53,4.12s2.38,4.45,3.33,11.12s0.48,11.11,2.86,13.33c0.66,0.62,1.3,1.09,1.87,1.45
			C176.98,88.21,177.5,89.9,176.79,91.31z"/>
		<path style="fill:#DD704E;" d="M173.34,108.28c-0.14,0.54-0.29,1.04-0.45,1.47c-1.66,4.44-16.43,1.43-16.43,1.43l-1.28,6.48
			l-6.89-0.7l-7.22-20.076l3.91,0.456c0,0,1.833,7.107,8.783,9.037C158.863,107.797,168.4,108.48,173.34,108.28z"/>
		<path style="fill:#007095;" d="M126.496,114.708c0,0,2.307-6.062,3.691-6.549c1.384-0.487,25.005,7.144,25.957,7.859
			c0.952,0.714,1.191,9.764,1.191,9.764L126.496,114.708z"/>
		<path style="fill:#37A2C6;" d="M169.01,243.42h-58.59c0,0-0.94-43.77-0.18-75.56c0.36-14.9,1.09-27.17,2.47-31.06
			c0.34-0.96,0.69-1.89,1.05-2.78c5.61-14.01,12.74-19.31,12.74-19.31l2.28,0.82l28.56,10.25c0,0,5.73,9.2,8.73,26.49
			c1.29,7.4,2.17,45.45,2.6,69.99c0.05,2.47,0.09,4.79,0.13,6.94c0.02,1.52,0.05,2.94,0.07,4.26
			C168.96,239.58,169.01,243.42,169.01,243.42z"/>
		<path style="fill:none;stroke:#B55039;stroke-linecap:round;stroke-miterlimit:10;" d="M146.619,100.848
			c0,0,0.476,5.168,7.144,8.74"/>
		<path style="fill:#298499;" d="M169.01,243.42h-58.59c0,0-2.03-94.44,2.29-106.62c5.72-16.09,13.79-22.09,13.79-22.09l2.28,0.82
			c-3.8,4.38-8.68,14.36-9.2,36.74c-0.84,35.96,2.75,74.87,49.22,76.93C168.94,237.74,169.01,243.42,169.01,243.42z"/>
		<path style="fill:#680304;" d="M141.55,96.708l-8.453,3.101c0,0-7.836-9.668-9.157-22.435
			c-1.321-12.767,9.157-18.138,9.157-18.138c9.509-9.245,16.948-6.373,24.784-3.379c7.836,2.994,12.411,13.43,12.411,13.43
			l-8.646,1.924c-1.122,3.874-6.858,4.955-6.858,4.955s-0.508,4.17-2.496,5.837c-1.988,1.667-3.119,1.965-3.119,1.965l0.655,6.43
			c0,0-0.417,0.655-2.143-1.191c-1.726-1.845-2.024-4.048-2.024-4.048s-0.672-4.031-3.989-4.048c-3.316-0.018-3.537,3.259-3.4,4.862
			c0.137,1.603,1.031,5.263,1.048,5.906C139.337,92.521,140.138,95.821,141.55,96.708z"/>
		<path style="fill:#FF9068;" d="M207.9,209.45v16.19c0,0-0.89,0.08-2.48,0.21c-10.56,0.88-51.98,4.24-67.1,3.75
			c-2.17-0.07-3.8-0.22-4.72-0.47c-0.26-0.07-0.51-0.14-0.75-0.22h-0.01c-5.21-1.68-7.27-5.45-8.45-10.25
			c-0.53-2.15-0.89-4.51-1.27-6.99c-1.27-8.26-2.85-40.32-4.13-53.34c-1.27-13.02,0-20.56,0-20.56l31.2-2.94
			c2.62,6.35-0.08,28.26,0,29.53s0,38.74,0,38.74l47.04,5.18l9.25,1.01L207.9,209.45z"/>
		<path style="fill:none;stroke:#B55039;stroke-linecap:round;stroke-miterlimit:10;" d="M145.785,98.396l-0.357-1.369
			c0,0-1.786,1.726-3.992-0.357c-2.206-2.084-1.545-6.072-2.795-9.168c-1.25-3.096,0-6.847,2.917-6.43
			c2.917,0.417,3.155,2.858,3.155,2.858"/>
		<path style="fill:none;stroke:#B55039;stroke-linecap:round;stroke-miterlimit:10;" d="M139.654,83.75
			c0,0-0.119-1.012,1.369-1.012c1.488,0,2.917,2.322,2.798,4.465c-0.119,2.143-0.641,2.381,0.007,3.394
			c0.648,1.012,1.303,0.655,1.124,2.5c-0.179,1.846-1.667,1.965-2.143,1.488c-0.476-0.476,0.298-2.024,0.298-2.024"/>
		<path style="fill:none;stroke:#B55039;stroke-linecap:round;stroke-miterlimit:10;" d="M142.571,85.119
			c0,0-1.965,1.726-1.727,3.661"/>
		<path style="fill:none;stroke:#003755;stroke-linecap:round;stroke-miterlimit:10;" d="M144.134,97.652
			c0,0,3.803,8.168,15.7,10.793"/>
		<path style="fill:none;stroke:#222221;stroke-miterlimit:10;" d="M161.532,83.299c0,0,0.595-1.603,2.501-1.841
			c1.905-0.238,2.59,1.607,2.59,1.607"/>
		<path style="fill:#A8D3D1;" d="M177.49,90.01c-0.01,0.43-0.11,0.85-0.32,1.26l-1.44,2.88c0,0-0.03,0.41-0.08,1.1
			c-0.25,2.87-1.01,10.65-2.33,14.31c-0.01,0.05-0.03,0.1-0.05,0.15c-0.62,1.68-3.14,2.3-6.02,2.41c-0.01,0-0.01,0-0.02,0
			c-7.23-1.66-10.39-7.27-11.26-13.22c-0.75-5.12,0.49-6.64,4.56-7.87c0.67-0.21,1.43-0.41,2.26-0.61
			c5.88-1.43,11.36-4.53,11.36-4.53c0.66,0.62,1.29,1.09,1.87,1.45C176.97,87.93,177.51,88.96,177.49,90.01z"/>
		<path style="fill:#007095;" d="M152.88,170.95c-0.13,3.51-0.23,5.83-0.23,5.83l-33.75,1.15c0,0-1.76-14.89-1.41-26.78
			c0.16-5.15,0.81-9.43,1.5-12.61c0.29-1.35,0.77-2.62,1.41-3.8c1.76-3.26,4.74-5.77,8.37-6.86c12.54-3.77,21.81,1.17,23.88,10.03
			C153.73,142.55,153.23,161.28,152.88,170.95z"/>
		<rect x="110.14" y="238.67" style="fill:#6D0A0A;" width="58.87" height="10.76"/>
		<path style="fill:#007095;" d="M169.41,355.48c-0.04,1.74-0.09,3.08-0.14,3.95c-0.13,1.98-0.53,5.62-1.12,10.31
			c-2.14,16.97-6.67,47.62-8.93,62.66c-0.81,5.41-1.32,8.8-1.32,8.8l-37.81-2.2l1.78-12.9l8.16-59.33l-3.66-44.74
			c0,0-5.82-15-10-26.64c-0.41-1.15-0.81-2.27-1.19-3.33c-1.29-3.7-2.3-6.79-2.74-8.53c-1.39-5.54-1.99-22.21-2.2-30
			c-0.07-2.51-0.1-4.1-0.1-4.1h58.87c0,0,0.02,1.82,0.05,5.01C169.23,272.88,169.79,336.92,169.41,355.48z"/>
		<path style="fill:#015D75;" d="M146.41,429.43c3.12,1.55,9.53,2.54,12.81,2.97c-0.81,5.41-1.32,8.8-1.32,8.8l-37.81-2.2l1.78-12.9
			c3.86-0.9,9.66-2.41,10.84-11.67c1.72-13.43,3.97-35.72,3.56-39.72c-0.41-4-1.88-2.57,0-13.71c1.87-11.14,2.41-31.71,0-36
			c-2.41-4.29,0.16-9.43-4.13-16.29c-4.28-6.85-0.28-8.85-4.86-10.85c-3.81-1.67-8.22-0.55-10.91-2.47
			c-0.41-1.15-0.81-2.27-1.19-3.33c2-1.66,9.77-1.54,10.68-8.67c1.14-8.96,3.42-20.39,1.42-24.1c-1.62-3.03-12.88-5.1-17.04-5.76
			c-0.07-2.51-0.1-4.1-0.1-4.1h58.87c0,0,0.02,1.82,0.05,5.01c-6.48,2.8-22.15,10.39-24.63,19.42c-3.14,11.43,1.14,46.28,4.57,59.43
			c3.43,13.14,1.14,16.28,1.14,23.14c0,6.86,0.57,8.57,1.15,10.86c0.57,2.28-1.72,5.71-2.58,13.14c-0.85,7.43,0.86,6.28-1.14,24
			C145.57,422.14,142.11,427.29,146.41,429.43z"/>
		
			<line style="fill:none;stroke:#003755;stroke-linecap:round;stroke-miterlimit:10;" x1="121.235" y1="291.599" x2="133.335" y2="291.599"/>
		<path style="fill:#015D75;" d="M152.88,170.95c-0.13,3.51-0.23,5.83-0.23,5.83l-33.75,1.15c0,0-1.76-14.89-1.41-26.78
			c0.16-5.15,0.81-9.43,1.5-12.61c0.29-1.35,0.77-2.62,1.41-3.8c0.31,10.03,2.65,28.22,14.95,33.96
			C141.19,171.43,147.33,171.74,152.88,170.95z"/>
		<path style="fill:#007095;" d="M183.225,70.666c0,0-11.589-3.413-14.13-4.683c-2.54-1.27-17.94,4.525-23.258,5.08
			c-5.318,0.556-2.492,1.968-1.27,2.143c0,0,10.954,1.667,21.194,1.905c10.24,0.238,14.169-2.58,17.86-2.461
			c1.033,0.033,2.426,0.712,2.676,0.212S186.941,71.541,183.225,70.666z"/>
		<path style="fill:#37A2C6;" d="M169.1,65.98c-8.38,5.16-29.26,6.99-29.26,6.99l-16.01,2.34c0,0-0.81-3.02-0.86-6.73
			c-0.04-2.55,0.28-5.44,1.46-7.87c2.9-5.95,11.49-7.03,18.29-10.6c1.93-1.02,4.3-1.75,6.76-2.2c4.75-0.87,9.88-0.67,13.01,0.68
			c0.95,0.39,1.72,0.9,2.24,1.52c2.45,2.91,3.75,11.12,4.19,14.44C169.04,65.44,169.1,65.98,169.1,65.98z"/>
		<path style="fill:#298499;" d="M169.1,65.98c-8.38,5.16-29.26,6.99-29.26,6.99l-16.01,2.34c0,0-0.81-3.02-0.86-6.73
			c1.87,0.22,5.96,0.51,6.78-0.97c1.07-1.93,5.14-2.68,9.9-4.61c4.76-1.93,6.06-4.29,5.9-6.43c-0.17-2.14,0.59-3.32,2.95-5.78
			c1.38-1.44,1.29-2.36,0.98-2.88c4.75-0.87,9.88-0.67,13.01,0.68c-1.89,0.14-4.69,0.87-6.73,3.59c-3.38,4.5-3.94,9.75-2.97,13.62
			c0.96,3.87,12.96-0.55,15.32-1.09c0.29-0.07,0.56-0.12,0.81-0.16C169.04,65.44,169.1,65.98,169.1,65.98z"/>
		<path style="fill:none;stroke:#B55039;stroke-linecap:round;stroke-miterlimit:10;" d="M148.714,205c0,0-3,3.286-6.143,7.714"/>
		
			<line style="fill:none;stroke:#003755;stroke-linecap:round;stroke-miterlimit:10;" x1="148.714" y1="173.286" x2="122" y2="173.286"/>
		<line style="fill:none;stroke:#222221;stroke-miterlimit:10;" x1="203.143" y1="213.929" x2="206.714" y2="213.929"/>
		<path style="fill:none;stroke:#003755;stroke-linecap:round;stroke-miterlimit:10;" d="M155.761,48.643
			c0,0-3.289,1.071-5.65,5.464c-2.361,4.393-2.158,8.464-4.081,11.25c-1.923,2.786-1.911,5.971-1.911,5.971"/>
		
			<line style="fill:none;stroke:#003755;stroke-linecap:round;stroke-miterlimit:10;" x1="126.536" y1="72.857" x2="140.036" y2="70.463"/>
		<path style="fill:none;stroke:#003755;stroke-linecap:round;stroke-miterlimit:10;" d="M147.714,250c0,0-1,6.286-4.143,9.143
			C140.429,262,136.286,262,136.286,262"/>
		<path style="fill:none;stroke:#003755;stroke-linecap:round;stroke-miterlimit:10;" d="M136.286,250c0,0,0.214,22.571,0,24.071
			c-0.214,1.5,1.5,14.698,1.5,17.528c0,2.829,3,10.544,5.143,25.972c2.143,15.429,3,20.143,3,26.572c0,6.428-0.643,9.857,0,10.714
			c0.643,0.857,0.643,4.286,0,6c-0.643,1.714,0.482,4.072,0.482,4.072s-6.457,56.571-7.112,64.5"/>
		
			<line style="fill:none;stroke:#003755;stroke-linecap:round;stroke-miterlimit:10;" x1="124.5" y1="432.643" x2="153.842" y2="435"/>
		<path style="fill:none;stroke:#003755;stroke-linecap:round;stroke-miterlimit:10;" d="M110.859,253.63l8.391,0.84
			c0,0,0.75,16.066,0,21.958c-0.75,5.893-4.329,6.964-4.329,6.964"/>
		<path style="fill:none;stroke:#003755;stroke-linecap:round;stroke-miterlimit:10;" d="M124.5,460.857c0,0,5.071,0.214,6.5-5"/>
		<path style="fill:none;stroke:#003755;stroke-linecap:round;stroke-miterlimit:10;" d="M121.786,472.643
			c0,0,1.214,1.286,12.357,1.928c11.143,0.643,15.857,0.072,22.5,0.714c6.643,0.643,24.071-0.071,27.5-2.643"/>
		<path style="fill:none;stroke:#003755;stroke-linecap:round;stroke-miterlimit:10;" d="M145.714,454.857
			c0,0,0.429,2.572,4.071,5.429c3.643,2.857,12.643,2.357,19.143,4.5c6.5,2.143,7.857,8.214,7.857,8.214"/>
		
			<line style="fill:none;stroke:#003755;stroke-linecap:round;stroke-miterlimit:10;" x1="155.639" y1="457.786" x2="153.009" y2="461.464"/>
		
			<line style="fill:none;stroke:#003755;stroke-linecap:round;stroke-miterlimit:10;" x1="159.684" y1="459.229" x2="158.714" y2="462.571"/>
		
			<line style="fill:none;stroke:#003755;stroke-linecap:round;stroke-miterlimit:10;" x1="164.587" y1="460.357" x2="164.429" y2="463.357"/>
		<polygon style="fill:#DD704E;" points="150.225,179.065 120.993,185.796 120.47,177.934 150.226,176.863 		"/>
		<path style="fill:#DD704E;" d="M206.48,209.29l-1.06,16.56c-12.08,1.01-64.52,5.25-71.82,3.28c-0.26-0.07-0.51-0.14-0.75-0.22
			c15.58-2.12,58.74-8.08,61.72-9.77c2.88-1.64,2.81-8.2,2.66-10.86L206.48,209.29z"/>
		<path style="fill:#A8D3D1;" d="M238.36,213.11c-0.53,1.13-5.77,4.28-7.98,4.76c-0.11,0.02-0.22,0.04-0.34,0.06
			c-0.91,0.15-2.08,0.17-3.16,0.14l-0.12,0.58l3.21,0.09l0.61,0.02c0,0,1.59-0.53,3.67-1.66c2.09-1.14,2.21-0.9,2.92-0.54
			c0.72,0.36,0.6,1.49-0.36,2.62c-0.95,1.13-2.32,2.32-4.94,3.04c-0.76,0.21-1.78,0.32-2.85,0.37c-1.05,0.05-2.14,0.05-3.07,0.03
			l-0.19,0.9l2.42,0.41l0.79,0.13c0,0,0.82-0.59,2.23-0.95s3.29-0.18,3.05,0.77c-0.23,0.96-2.44,2.74-4.82,3.06
			c-2.38,0.32-5.77,0-5.77,0c-0.03-0.04-0.05-0.08-0.08-0.11c-3.81-0.02-12.82-0.08-12.82-0.08l-8.34,2.54c0,0-1.51-1.27-1.26-3.09
			c0.24-1.82-0.48-2.62-1.2-6.12c-0.71-3.49,2.54-4.28,1.03-7.93c-1.5-3.66,0.8-5.32,0.8-5.32c0.05,0.01,0.11,0.03,0.17,0.04
			c1.49,0.36,4.35,0.51,4.35,0.51l5.72-2.7c0,0,2.15-1.72,4.13-2.46c0.24-0.09,0.48-0.17,0.71-0.23c2.14-0.54,7.86-1.08,8.93-1.25
			c1.07-0.18,1.55,1.9-0.54,2.85c-0.74,0.34-1.48,0.67-2.18,0.96c-1.27,0.54-2.4,0.93-3.17,1.01c-1.19,0.12-2.5,2.33-2.5,2.33
			s-0.27-0.02-0.69-0.08l0.07,0.05l6.13,0.41c1.85-0.13,4.64-0.3,6.11-0.38h0.1c2.27-0.12,5.84-1.59,6.85-0.09
			c1.01,1.5-0.54,2.69-3.04,3.34c-0.87,0.23-2.01,0.51-3.11,0.77c-2.01,0.49-3.93,0.93-4.02,0.96l0.31,0.76l3.87-0.22l0.22-0.01
			c0,0,6.07-2.85,7.08-2.67C238.3,210.9,238.9,211.98,238.36,213.11z"/>
		<path style="fill:none;stroke:#003755;stroke-linecap:round;stroke-miterlimit:10;" d="M224.357,214.429c0,0-1,0.357-3,0"/>
		
			<line style="fill:none;stroke:#003755;stroke-linecap:round;stroke-miterlimit:10;" x1="223.857" y1="219.143" x2="221.357" y2="219.143"/>
		<path style="fill:none;stroke:#003755;stroke-linecap:round;stroke-miterlimit:10;" d="M208.286,225.857
			c0,0-1.357-4.071-1.571-7.143c-0.214-3.071,0.5-7.429,0.5-7.429"/>
		<path style="fill:#8EBCB8;" d="M223.08,204.55c-2.56-0.93-5.36-1.84-6.92-2.33c0.24-0.09,0.48-0.17,0.71-0.23
			c2.14-0.54,7.86-1.08,8.93-1.25c1.07-0.18,1.55,1.9-0.54,2.85C224.52,203.93,223.78,204.26,223.08,204.55z"/>
		<path style="fill:#8EBCB8;" d="M234.25,223.88c-0.23,0.96-2.44,2.74-4.82,3.06c-2.38,0.32-5.77,0-5.77,0
			c-0.03-0.04-0.05-0.08-0.08-0.11c-3.81-0.02-12.82-0.08-12.82-0.08l-8.34,2.54c0,0-1.51-1.27-1.26-3.09
			c0.24-1.82-0.48-2.62-1.2-6.12c-0.71-3.49,2.54-4.28,1.03-7.93c-1.5-3.66,0.8-5.32,0.8-5.32c0.05,0.01,0.11,0.03,0.17,0.04
			c0.3,1.22,0.94,3.08,2.25,3.77c2.04,1.07,0.65,2.86-0.53,3.79c-1.18,0.93,0.57,2.43,1.25,3.82c0.68,1.39-2.75,3.21-2.32,5.14
			c0.43,1.93,19.8,3.97,24.53,1.4c0.39-0.21,0.74-0.5,1.04-0.86l0.79,0.13c0,0,0.82-0.59,2.23-0.95S234.49,222.93,234.25,223.88z"/>
		<path style="fill:#8EBCB8;" d="M229.83,211.91c-0.2-1.7-0.51-3.15-0.8-4.02h0.1c2.27-0.12,5.84-1.59,6.85-0.09
			c1.01,1.5-0.54,2.69-3.04,3.34C232.07,211.37,230.93,211.65,229.83,211.91z"/>
		<path style="fill:#8EBCB8;" d="M236.81,219.18c-0.95,1.13-2.32,2.32-4.94,3.04c-0.76,0.21-1.78,0.32-2.85,0.37
			c0.5-1.08,0.79-2.42,0.95-3.85l0.61,0.02c0,0,1.59-0.53,3.67-1.66c2.09-1.14,2.21-0.9,2.92-0.54
			C237.89,216.92,237.77,218.05,236.81,219.18z"/>
		<path style="fill:#8EBCB8;" d="M238.36,213.11c-0.53,1.13-5.77,4.28-7.98,4.76c-0.11,0.02-0.22,0.04-0.34,0.06
			c0.1-1.5,0.07-3.06-0.05-4.52l0.22-0.01c0,0,6.07-2.85,7.08-2.67C238.3,210.9,238.9,211.98,238.36,213.11z"/>
		<path style="fill:#560505;" d="M169.01,243.81v5.62h-58.87v-10.22c3.16,1.52,10.36,3.96,25.02,4.84
			C150.44,244.96,162.88,244.3,169.01,243.81z"/>
		<path style="fill:#015D75;" d="M169.41,355.48c-0.04,1.74-0.09,3.08-0.14,3.95c-0.13,1.98-0.53,5.62-1.12,10.31
			c-0.96,0.88-2.26,1.19-4.01,0.55c-8.14-3-7-13.72-6.57-14.72C157.91,354.77,166.16,355.25,169.41,355.48z"/>
		<path style="fill:#DD704E;" d="M138.32,229.6c-2.17-0.07-3.8-0.22-4.72-0.47c-0.26-0.07-0.51-0.14-0.75-0.22h-0.01
			c-5.21-1.68-7.27-5.45-8.45-10.25c2.16-0.13,5.46-0.03,8.46,1.34C136.81,221.81,137.99,227.35,138.32,229.6z"/>
		<path style="fill:#8EBCB8;" d="M177.49,90.01c-0.01,0.43-0.11,0.85-0.32,1.26l-1.44,2.88c0,0-0.03,0.41-0.08,1.1
			c-1.73,0.24-4.28-0.92-4.22-1.61c0.07-0.85,1.21-0.28,2.78-1.28C175.38,91.62,176.83,90.52,177.49,90.01z"/>
		<path style="fill:#8EBCB8;" d="M173.32,109.56c-0.01,0.05-0.03,0.1-0.05,0.15c-0.62,1.68-3.14,2.3-6.02,2.41
			c-0.01,0-0.01,0-0.02,0c-7.23-1.66-10.39-7.27-11.26-13.22c-0.75-5.12,0.49-6.64,4.56-7.87c-0.7,1.52-1.69,4.24-1.6,7.37
			c0.14,4.81,4.21,6.1,5.86,8.6c1.64,2.5,5.28,4.07,8.1,2.75C173.04,109.68,173.19,109.62,173.32,109.56z"/>
		<path style="fill:none;stroke:#003755;stroke-linecap:round;stroke-miterlimit:10;" d="M145.785,84.375
			c0,0,6.918,7.183,10.843,8.868"/>
		<path style="fill:#015D75;" d="M132.054,109.179c0,0,5.732,2.357,7.178,4.607c1.446,2.25-7.553,1.875-9.375,1.179
			c-1.821-0.696-0.268-1.874,0.161-2.624C130.446,111.589,130.05,109.446,132.054,109.179z"/>
	</g>
</g>
</svg>
